ply
format ascii 1.0
comment Created by Blender 2.79 (sub 0) - www.blender.org, source file: ''
element vertex 182
property float x
property float y
property float z
property float nx
property float ny
property float nz
element face 92
property list uchar uint vertex_indices
end_header
-0.371500 -0.207812 0.410058 0.000000 -1.000000 0.000000
-0.546500 -0.207812 0.028808 0.000000 -1.000000 0.000000
-0.371500 -0.207812 0.028808 0.000000 -1.000000 0.000000
-0.371500 0.207812 0.410058 0.000000 -0.000000 1.000000
-0.546500 -0.207812 0.410058 0.000000 -0.000000 1.000000
-0.371500 -0.207812 0.410058 0.000000 -0.000000 1.000000
-0.371500 0.207812 0.028808 0.000000 1.000000 0.000000
-0.546500 0.207812 0.410058 0.000000 1.000000 0.000000
-0.371500 0.207812 0.410058 0.000000 1.000000 0.000000
-0.371500 0.207812 0.028808 1.000000 -0.000000 0.000000
-0.371500 0.139512 0.341758 1.000000 -0.000000 0.000000
-0.371500 0.139512 0.028808 1.000000 -0.000000 0.000000
-0.371500 -0.207812 0.410058 1.000000 0.000000 0.000000
-0.371500 0.207812 0.410058 1.000000 0.000000 0.000000
-0.371500 -0.207812 0.028808 1.000000 0.000000 0.000000
-0.371500 -0.139512 0.341758 1.000000 0.000000 0.000000
-0.546500 -0.207812 0.028808 -0.000000 0.000000 -1.000000
-0.371500 -0.139512 0.028808 -0.000000 0.000000 -1.000000
-0.371500 -0.207812 0.028808 -0.000000 0.000000 -1.000000
-0.546500 -0.207812 0.028808 -1.000000 -0.000000 0.000000
-0.546500 -0.139512 0.341758 -1.000000 -0.000000 0.000000
-0.546500 -0.139512 0.028808 -1.000000 -0.000000 0.000000
-0.546500 0.207812 0.410058 -1.000000 0.000000 0.000000
-0.546500 -0.207812 0.410058 -1.000000 0.000000 0.000000
-0.546500 0.207812 0.028808 -1.000000 0.000000 -0.000000
-0.546500 0.139513 0.341758 -1.000000 0.000000 -0.000000
-0.371500 0.207812 0.028808 0.000000 0.000000 -1.000000
-0.546500 0.139513 0.028808 0.000000 0.000000 -1.000000
-0.546500 0.207812 0.028808 0.000000 0.000000 -1.000000
-0.546500 -0.139512 0.341758 0.000000 1.000000 -0.000000
-0.371500 -0.139512 0.028808 0.000000 1.000000 -0.000000
-0.546500 -0.139512 0.028808 0.000000 1.000000 -0.000000
-0.546500 -0.139512 0.341758 -0.000000 0.000000 -1.000000
-0.371500 0.139512 0.341758 -0.000000 0.000000 -1.000000
-0.371500 -0.139512 0.341758 -0.000000 0.000000 -1.000000
-0.546500 0.139513 0.028808 -0.000006 -1.000000 0.000000
-0.371500 0.139512 0.341758 -0.000006 -1.000000 0.000000
-0.546500 0.139513 0.341758 -0.000006 -1.000000 0.000000
-0.752714 -0.212616 0.466188 -0.999017 0.043833 -0.006627
-0.747340 -0.098447 0.411222 -0.999017 0.043833 -0.006627
-0.752714 -0.220926 0.411222 -0.999017 0.043833 -0.006627
0.752714 -0.098447 0.411222 -0.000427 0.990421 0.138080
-0.747340 -0.106757 0.466188 -0.000427 0.990421 0.138080
0.752714 -0.106757 0.470828 -0.000427 0.990421 0.138080
0.752714 -0.212616 0.470828 1.000000 0.000000 0.000000
0.752714 -0.098447 0.411222 1.000000 0.000000 0.000000
0.752714 -0.106757 0.470828 1.000000 0.000000 0.000000
0.752714 -0.220926 0.411222 -0.000000 -0.000000 -1.000000
-0.747340 -0.098447 0.411222 -0.000000 -0.000000 -1.000000
0.752714 -0.098447 0.411222 -0.000000 -0.000000 -1.000000
0.752714 -0.220926 0.411222 0.000000 -0.988764 0.149486
-0.752714 -0.212616 0.466188 0.000000 -0.988764 0.149486
-0.752714 -0.220926 0.411222 0.000000 -0.988764 0.149486
0.752714 -0.212616 0.470828 -0.003082 0.000156 0.999995
-0.747340 -0.106757 0.466188 -0.003082 0.000156 0.999995
-0.752714 -0.212616 0.466188 -0.003082 0.000156 0.999995
-0.752714 -0.070037 0.411450 -1.000000 -0.000000 0.000000
-0.752714 0.044131 0.468149 -1.000000 -0.000000 0.000000
-0.752714 0.052441 0.411450 -1.000000 -0.000000 0.000000
-0.752714 0.052441 0.411450 0.000022 0.989094 0.147282
0.745312 0.044131 0.467029 0.000022 0.989094 0.147282
0.745312 0.052441 0.411222 0.000022 0.989094 0.147282
0.745312 -0.070037 0.411222 1.000000 -0.000000 0.000000
0.745312 0.044131 0.467029 1.000000 -0.000000 0.000000
0.745312 -0.061727 0.467029 1.000000 -0.000000 0.000000
0.745312 -0.070037 0.411222 -0.000152 0.000000 -1.000000
-0.752714 0.052441 0.411450 -0.000152 0.000000 -1.000000
0.745312 0.052441 0.411222 -0.000152 0.000000 -1.000000
0.745312 -0.061727 0.467029 0.000022 -0.989094 0.147282
-0.752714 -0.070037 0.411450 0.000022 -0.989094 0.147282
0.745312 -0.070037 0.411222 0.000022 -0.989094 0.147282
-0.752714 0.044131 0.468149 0.000748 0.000000 1.000000
0.745312 -0.061727 0.467029 0.000748 0.000000 1.000000
0.745312 0.044131 0.467029 0.000748 0.000000 1.000000
-0.744844 0.099866 0.470828 -1.000000 0.000000 0.000000
-0.744844 0.210753 0.411222 -1.000000 0.000000 0.000000
-0.744844 0.091557 0.411222 -1.000000 0.000000 0.000000
-0.744844 0.210753 0.411222 -0.006006 0.990403 0.138078
0.752714 0.211525 0.470828 -0.006006 0.990403 0.138078
0.752714 0.219835 0.411222 -0.006006 0.990403 0.138078
0.752714 0.097357 0.411222 1.000000 -0.000000 0.000000
0.752714 0.211525 0.470828 1.000000 -0.000000 0.000000
0.752714 0.105666 0.470828 1.000000 -0.000000 0.000000
0.752714 0.097357 0.411222 0.000000 -0.000000 -1.000000
-0.744844 0.210753 0.411222 0.000000 -0.000000 -1.000000
0.752714 0.219835 0.411222 0.000000 -0.000000 -1.000000
-0.744844 0.099866 0.470828 0.003836 -0.990416 0.138063
0.752714 0.097357 0.411222 0.003836 -0.990416 0.138063
0.752714 0.105666 0.470828 0.003836 -0.990416 0.138063
-0.744844 0.205725 0.470828 0.000000 0.000000 1.000000
0.752714 0.105666 0.470828 0.000000 0.000000 1.000000
0.752714 0.211525 0.470828 0.000000 0.000000 1.000000
0.371500 0.207813 0.410058 0.000006 1.000000 0.000000
0.546500 0.207812 0.028808 0.000006 1.000000 0.000000
0.371500 0.207813 0.028808 0.000006 1.000000 0.000000
0.371500 -0.207812 0.410058 0.000000 0.000000 1.000000
0.546500 0.207812 0.410058 0.000000 0.000000 1.000000
0.371500 0.207813 0.410058 0.000000 0.000000 1.000000
0.371500 -0.207812 0.028808 0.000000 -1.000000 -0.000000
0.546500 -0.207812 0.410058 0.000000 -1.000000 -0.000000
0.371500 -0.207812 0.410058 0.000000 -1.000000 -0.000000
0.371500 -0.207812 0.028808 -1.000000 -0.000000 0.000000
0.371500 -0.139512 0.341758 -1.000000 -0.000000 0.000000
0.371500 -0.139512 0.028808 -1.000000 -0.000000 0.000000
0.371500 0.207813 0.410058 -1.000000 0.000000 0.000000
0.371500 -0.207812 0.410058 -1.000000 0.000000 0.000000
0.371500 0.207813 0.028808 -1.000000 0.000000 -0.000000
0.371500 0.139513 0.341758 -1.000000 0.000000 -0.000000
0.546500 0.207812 0.028808 0.000000 0.000000 -1.000000
0.371500 0.139513 0.028808 0.000000 0.000000 -1.000000
0.371500 0.207813 0.028808 0.000000 0.000000 -1.000000
0.546500 0.207812 0.028808 1.000000 -0.000000 0.000000
0.546500 0.139512 0.341758 1.000000 -0.000000 0.000000
0.546500 0.139512 0.028808 1.000000 -0.000000 0.000000
0.546500 -0.207812 0.410058 1.000000 0.000000 0.000000
0.546500 0.207812 0.410058 1.000000 0.000000 0.000000
0.546500 -0.207812 0.028808 1.000000 0.000000 0.000000
0.546500 -0.139512 0.341758 1.000000 0.000000 0.000000
0.371500 -0.207812 0.028808 -0.000000 0.000000 -1.000000
0.546500 -0.139512 0.028808 -0.000000 0.000000 -1.000000
0.546500 -0.207812 0.028808 -0.000000 0.000000 -1.000000
0.546500 0.139512 0.341758 -0.000006 -1.000000 0.000000
0.371500 0.139513 0.028808 -0.000006 -1.000000 0.000000
0.546500 0.139512 0.028808 -0.000006 -1.000000 0.000000
0.546500 0.139512 0.341758 0.000000 0.000000 -1.000000
0.371500 -0.139512 0.341758 0.000000 0.000000 -1.000000
0.371500 0.139513 0.341758 0.000000 0.000000 -1.000000
0.546500 -0.139512 0.028808 0.000000 1.000000 0.000000
0.371500 -0.139512 0.341758 0.000000 1.000000 0.000000
0.546500 -0.139512 0.341758 0.000000 1.000000 0.000000
-0.546500 -0.207812 0.410058 0.000000 -1.000000 0.000000
-0.546500 0.207812 0.410058 0.000000 0.000000 1.000000
-0.546500 0.207812 0.028808 -0.000000 1.000000 0.000000
-0.371500 -0.139512 0.028808 1.000000 0.000000 0.000000
-0.546500 -0.139512 0.028808 -0.000000 -0.000000 -1.000000
-0.546500 0.139513 0.028808 -1.000000 0.000000 0.000000
-0.371500 0.139512 0.028808 0.000000 0.000000 -1.000000
-0.371500 -0.139512 0.341758 0.000000 1.000000 -0.000000
-0.546500 0.139513 0.341758 -0.000000 -0.000000 -1.000000
-0.371500 0.139512 0.028808 -0.000006 -1.000000 -0.000000
-0.752714 -0.212616 0.466188 -0.998685 0.050698 0.007665
-0.747340 -0.106757 0.466188 -0.998685 0.050698 0.007665
-0.747340 -0.098447 0.411222 -0.998685 0.050698 0.007665
0.752714 -0.098447 0.411222 -0.000000 0.988764 0.149486
-0.747340 -0.098447 0.411222 -0.000000 0.988764 0.149486
-0.747340 -0.106757 0.466188 -0.000000 0.988764 0.149486
0.752714 -0.220926 0.411222 1.000000 0.000000 -0.000000
-0.752714 -0.220926 0.411222 0.000000 -0.000000 -1.000000
0.752714 -0.220926 0.411222 -0.000426 -0.990421 0.138080
0.752714 -0.212616 0.470828 -0.000426 -0.990421 0.138080
-0.752714 -0.212616 0.466188 -0.000426 -0.990421 0.138080
0.752714 -0.212616 0.470828 -0.003093 0.000000 0.999995
0.752714 -0.106757 0.470828 -0.003093 0.000000 0.999995
-0.747340 -0.106757 0.466188 -0.003093 0.000000 0.999995
-0.752714 -0.061727 0.468149 -1.000000 -0.000000 0.000000
-0.752714 0.052441 0.411450 0.000108 0.989430 0.145014
-0.752714 0.044131 0.468149 0.000108 0.989430 0.145014
0.745312 0.044131 0.467029 0.000108 0.989430 0.145014
0.745312 0.052441 0.411222 1.000000 0.000000 0.000000
-0.752714 -0.070037 0.411450 -0.000152 -0.000000 -1.000000
0.745312 -0.061727 0.467029 0.000108 -0.989430 0.145014
-0.752714 -0.061727 0.468149 0.000108 -0.989430 0.145014
-0.752714 -0.070037 0.411450 0.000108 -0.989430 0.145014
-0.752714 -0.061727 0.468149 0.000748 -0.000000 1.000000
-0.744844 0.205725 0.470828 -1.000000 0.000000 0.000000
-0.744844 0.210753 0.411222 -0.003859 0.996454 0.084055
-0.744844 0.205725 0.470828 -0.003859 0.996454 0.084055
0.752714 0.211525 0.470828 -0.003859 0.996454 0.084055
0.752714 0.219835 0.411222 1.000000 0.000000 0.000000
-0.744844 0.091557 0.411222 0.000000 0.000000 -1.000000
-0.744844 0.091557 0.411222 0.003836 -0.990416 0.138063
-0.744844 0.099866 0.470828 0.000000 -0.000000 1.000000
0.546500 0.207812 0.410058 0.000006 1.000000 -0.000000
0.546500 -0.207812 0.410058 0.000000 0.000000 1.000000
0.546500 -0.207812 0.028808 -0.000000 -1.000000 -0.000000
0.371500 0.139513 0.028808 -1.000000 0.000000 0.000000
0.546500 0.139512 0.028808 0.000000 0.000000 -1.000000
0.546500 -0.139512 0.028808 1.000000 0.000000 0.000000
0.371500 -0.139512 0.028808 -0.000000 -0.000000 -1.000000
0.371500 0.139513 0.341758 -0.000006 -1.000000 0.000000
0.546500 -0.139512 0.341758 0.000000 0.000000 -1.000000
0.371500 -0.139512 0.028808 -0.000000 1.000000 0.000000
3 0 1 2
3 3 4 5
3 6 7 8
3 9 10 11
3 12 10 13
3 14 15 12
3 16 17 18
3 19 20 21
3 22 20 23
3 24 25 22
3 26 27 28
3 29 30 31
3 32 33 34
3 35 36 37
3 38 39 40
3 41 42 43
3 44 45 46
3 47 48 49
3 50 51 52
3 53 54 55
3 56 57 58
3 59 60 61
3 62 63 64
3 65 66 67
3 68 69 70
3 71 72 73
3 74 75 76
3 77 78 79
3 80 81 82
3 83 84 85
3 86 87 88
3 89 90 91
3 92 93 94
3 95 96 97
3 98 99 100
3 101 102 103
3 104 102 105
3 106 107 104
3 108 109 110
3 111 112 113
3 114 112 115
3 116 117 114
3 118 119 120
3 121 122 123
3 124 125 126
3 127 128 129
3 0 130 1
3 3 131 4
3 6 132 7
3 9 13 10
3 12 15 10
3 14 133 15
3 16 134 17
3 19 23 20
3 22 25 20
3 24 135 25
3 26 136 27
3 29 137 30
3 32 138 33
3 35 139 36
3 140 141 142
3 143 144 145
3 44 146 45
3 47 147 48
3 148 149 150
3 151 152 153
3 56 154 57
3 155 156 157
3 62 158 63
3 65 159 66
3 160 161 162
3 71 163 72
3 74 164 75
3 165 166 167
3 80 168 81
3 83 169 84
3 86 170 87
3 89 171 90
3 92 172 93
3 95 173 96
3 98 174 99
3 101 105 102
3 104 107 102
3 106 175 107
3 108 176 109
3 111 115 112
3 114 117 112
3 116 177 117
3 118 178 119
3 121 179 122
3 124 180 125
3 127 181 128
