ply
format ascii 1.0
comment Created by Blender 2.79 (sub 0) - www.blender.org, source file: ''
element vertex 472
property float x
property float y
property float z
property float nx
property float ny
property float nz
element face 312
property list uchar uint vertex_indices
end_header
0.013220 -0.177776 0.003113 -0.000000 0.000000 1.000000
-0.020921 0.179474 0.003113 -0.000000 0.000000 1.000000
-0.020921 -0.177776 0.003113 -0.000000 0.000000 1.000000
-0.020921 -0.245862 -0.064974 -0.000000 -1.000000 -0.000000
0.013220 -0.245862 -0.130063 -0.000000 -1.000000 -0.000000
0.013220 -0.245862 -0.064974 -0.000000 -1.000000 -0.000000
0.013220 0.247561 -0.064974 -0.000000 1.000000 0.000000
-0.020921 0.247561 -0.130063 -0.000000 1.000000 0.000000
-0.020921 0.247561 -0.064974 -0.000000 1.000000 0.000000
-0.020921 -0.225920 -0.016830 0.000000 -0.382701 0.923872
0.013220 -0.177776 0.003113 0.000000 -0.382701 0.923872
-0.020921 -0.177776 0.003113 0.000000 -0.382701 0.923872
-0.020921 -0.245862 -0.064974 0.000000 -0.923879 0.382685
0.013220 -0.225920 -0.016830 0.000000 -0.923879 0.382685
-0.020921 -0.225920 -0.016830 0.000000 -0.923879 0.382685
-0.020921 0.227619 -0.016830 -0.000000 0.923879 0.382685
0.013220 0.247561 -0.064974 -0.000000 0.923879 0.382685
-0.020921 0.247561 -0.064974 -0.000000 0.923879 0.382685
-0.020921 0.179474 0.003113 -0.000000 0.382695 0.923875
0.013220 0.227619 -0.016830 -0.000000 0.382695 0.923875
-0.020921 0.227619 -0.016830 -0.000000 0.382695 0.923875
-0.020921 0.178479 -0.001887 0.000000 0.000000 -1.000000
0.013220 -0.176781 -0.001887 0.000000 0.000000 -1.000000
-0.020921 -0.176781 -0.001887 0.000000 0.000000 -1.000000
-0.020921 -0.240862 -0.065969 0.000000 1.000000 -0.000000
0.013220 -0.240862 -0.130063 0.000000 1.000000 -0.000000
-0.020921 -0.240862 -0.130063 0.000000 1.000000 -0.000000
-0.020921 0.242561 -0.130063 0.000000 -1.000000 -0.000000
0.013220 0.242561 -0.065969 0.000000 -1.000000 -0.000000
-0.020921 0.242561 -0.065969 0.000000 -1.000000 -0.000000
0.013220 -0.176781 -0.001887 0.000000 0.382686 -0.923878
-0.020921 -0.222093 -0.020656 0.000000 0.382686 -0.923878
-0.020921 -0.176781 -0.001887 0.000000 0.382686 -0.923878
0.013220 -0.222093 -0.020656 0.000000 0.923881 -0.382679
-0.020921 -0.240862 -0.065969 0.000000 0.923881 -0.382679
-0.020921 -0.222093 -0.020656 0.000000 0.923881 -0.382679
0.013220 0.242561 -0.065969 0.000000 -0.923881 -0.382679
-0.020921 0.223792 -0.020656 0.000000 -0.923881 -0.382679
-0.020921 0.242561 -0.065969 0.000000 -0.923881 -0.382679
0.013220 0.223792 -0.020656 0.000000 -0.382679 -0.923881
-0.020921 0.178479 -0.001887 0.000000 -0.382679 -0.923881
-0.020921 0.223792 -0.020656 0.000000 -0.382679 -0.923881
0.013220 -0.176781 -0.001887 1.000000 -0.000000 0.000000
0.013220 0.179474 0.003113 1.000000 -0.000000 0.000000
0.013220 -0.177776 0.003113 1.000000 -0.000000 0.000000
-0.020921 0.179474 0.003113 -1.000000 0.000000 0.000000
-0.020921 -0.176781 -0.001887 -1.000000 0.000000 0.000000
-0.020921 -0.177776 0.003113 -1.000000 0.000000 0.000000
-0.020921 -0.240862 -0.065969 -1.000000 0.000000 0.000000
-0.020921 -0.245862 -0.130063 -1.000000 0.000000 0.000000
-0.020921 -0.245862 -0.064974 -1.000000 0.000000 0.000000
0.013220 -0.240862 -0.130063 0.000000 0.000000 -1.000000
-0.020921 -0.245862 -0.130063 0.000000 0.000000 -1.000000
-0.020921 -0.240862 -0.130063 0.000000 0.000000 -1.000000
0.013220 -0.240862 -0.065969 1.000000 0.000000 -0.000000
0.013220 -0.245862 -0.130063 1.000000 0.000000 -0.000000
0.013220 -0.240862 -0.130063 1.000000 0.000000 -0.000000
0.013220 0.242561 -0.065969 1.000000 0.000000 0.000000
0.013220 0.247561 -0.130063 1.000000 0.000000 0.000000
0.013220 0.247561 -0.064974 1.000000 0.000000 0.000000
-0.020921 0.242561 -0.130063 -0.000000 0.000000 -1.000000
0.013220 0.247561 -0.130063 -0.000000 0.000000 -1.000000
0.013220 0.242561 -0.130063 -0.000000 0.000000 -1.000000
-0.020921 0.242561 -0.065969 -1.000000 0.000000 0.000000
-0.020921 0.247561 -0.130063 -1.000000 0.000000 0.000000
-0.020921 0.242561 -0.130063 -1.000000 0.000000 0.000000
-0.020921 -0.222093 -0.020656 -1.000000 0.000000 0.000000
-0.020921 -0.225920 -0.016830 -1.000000 0.000000 0.000000
0.013220 -0.222093 -0.020656 1.000000 -0.000000 0.000000
0.013220 -0.225920 -0.016830 1.000000 -0.000000 0.000000
0.013220 -0.245862 -0.064974 1.000000 0.000000 -0.000000
-0.020921 0.223792 -0.020656 -1.000000 0.000000 0.000000
-0.020921 0.247561 -0.064974 -1.000000 0.000000 0.000000
0.013220 0.223792 -0.020656 1.000000 0.000000 0.000000
0.013220 0.227619 -0.016830 1.000000 0.000000 0.000000
-0.020921 0.227619 -0.016830 -1.000000 -0.000000 -0.000000
0.013220 0.178479 -0.001887 1.000000 -0.000000 0.000000
0.097035 -0.237756 -0.120050 0.000000 -0.000000 1.000000
-0.098508 -0.245444 -0.120050 0.000000 -0.000000 1.000000
0.100220 -0.245444 -0.120050 0.000000 -0.000000 1.000000
0.097035 0.237379 -0.120050 -0.000000 -0.000000 1.000000
-0.098508 0.245066 -0.120050 -0.000000 -0.000000 1.000000
-0.095324 0.237379 -0.120050 -0.000000 -0.000000 1.000000
0.138249 -0.196542 -0.120050 -0.000000 0.000000 1.000000
0.145937 0.199349 -0.120050 -0.000000 0.000000 1.000000
0.138249 0.196165 -0.120050 -0.000000 0.000000 1.000000
-0.136538 0.196165 -0.120050 0.000000 -0.000000 1.000000
-0.144225 -0.199726 -0.120050 0.000000 -0.000000 1.000000
-0.136538 -0.196542 -0.120050 0.000000 -0.000000 1.000000
-0.095324 -0.237756 -0.120050 -0.000000 -0.000000 1.000000
0.145937 -0.199726 -0.120050 0.000000 -0.000000 1.000000
-0.144225 0.199349 -0.120050 0.000000 -0.000000 1.000000
0.100220 0.245066 -0.120050 -0.000000 0.000000 1.000000
-0.121538 -0.190329 -0.120050 -0.000000 0.000000 1.000000
-0.089111 -0.222756 -0.120050 -0.000000 0.000000 1.000000
0.090822 -0.222756 -0.120050 0.000000 -0.000000 1.000000
0.123249 0.189952 -0.120050 0.000000 0.000000 1.000000
0.090822 0.222379 -0.120050 0.000000 0.000000 1.000000
-0.089111 0.222379 -0.120050 0.000000 0.000000 1.000000
0.123249 -0.190329 -0.120050 0.000000 -0.000000 1.000000
-0.121538 0.189952 -0.120050 0.000000 0.000000 1.000000
0.102150 -0.251103 -0.120050 0.000000 0.000000 1.000000
-0.100438 0.250726 -0.120050 -0.000000 -0.000000 1.000000
0.151596 0.201279 -0.120050 -0.000000 0.000000 1.000000
-0.149885 -0.201656 -0.120050 0.000000 -0.000000 1.000000
-0.100438 -0.251103 -0.120050 0.000000 0.000000 1.000000
0.151596 -0.201656 -0.120050 0.000000 0.000000 1.000000
-0.149885 0.201279 -0.120050 -0.000000 0.000000 1.000000
0.102150 0.250726 -0.120050 0.000000 0.000000 1.000000
0.102150 -0.251103 -0.120050 0.000000 -1.000000 0.000000
-0.100438 -0.251103 -0.120050 0.000000 -1.000000 0.000000
0.000856 -0.251103 -0.225989 0.000000 -1.000000 0.000000
-0.100438 0.250726 -0.120050 0.000000 1.000000 -0.000000
0.102150 0.250726 -0.120050 0.000000 1.000000 -0.000000
0.000856 0.250726 -0.225989 0.000000 1.000000 -0.000000
0.151596 0.201279 -0.120050 1.000000 0.000000 -0.000000
0.151596 -0.201656 -0.120050 1.000000 0.000000 -0.000000
0.151596 -0.000189 -0.225989 1.000000 0.000000 -0.000000
-0.149885 -0.201656 -0.120050 -1.000000 0.000000 0.000000
-0.149885 0.201279 -0.120050 -1.000000 0.000000 0.000000
-0.149885 -0.000189 -0.225989 -1.000000 0.000000 0.000000
0.102150 -0.250103 -0.121050 -0.000000 -0.000000 -1.000000
-0.098508 -0.245444 -0.121050 -0.000000 -0.000000 -1.000000
0.100220 -0.245444 -0.121050 -0.000000 -0.000000 -1.000000
-0.100438 0.249726 -0.121050 0.000000 0.000000 -1.000000
0.100220 0.245066 -0.121050 0.000000 0.000000 -1.000000
-0.098508 0.245066 -0.121050 0.000000 0.000000 -1.000000
0.150596 0.201279 -0.121050 0.000000 0.000000 -1.000000
0.145937 -0.199726 -0.121050 0.000000 0.000000 -1.000000
0.145937 0.199349 -0.121050 0.000000 0.000000 -1.000000
-0.148885 -0.201656 -0.121050 -0.000000 0.000000 -1.000000
-0.144225 0.199349 -0.121050 -0.000000 0.000000 -1.000000
-0.144225 -0.199726 -0.121050 -0.000000 0.000000 -1.000000
-0.100438 -0.250103 -0.121050 -0.000000 -0.000000 -1.000000
0.150596 -0.201656 -0.121050 0.000000 -0.000000 -1.000000
-0.148885 0.201279 -0.121050 -0.000000 0.000000 -1.000000
0.102150 -0.250103 -0.121050 -0.000000 1.000000 0.000000
0.000856 -0.250103 -0.225989 -0.000000 1.000000 0.000000
-0.100438 -0.250103 -0.121050 -0.000000 1.000000 0.000000
-0.100438 0.249726 -0.121050 -0.000000 -1.000000 0.000000
0.000856 0.249726 -0.225989 -0.000000 -1.000000 0.000000
0.102150 0.249726 -0.121050 -0.000000 -1.000000 0.000000
0.150596 0.201279 -0.121050 -1.000000 0.000000 0.000000
0.150596 -0.000189 -0.225989 -1.000000 0.000000 0.000000
0.150596 -0.201656 -0.121050 -1.000000 0.000000 0.000000
-0.148885 -0.201656 -0.121050 1.000000 0.000000 0.000000
-0.148885 -0.000189 -0.225989 1.000000 0.000000 0.000000
-0.148885 0.201279 -0.121050 1.000000 0.000000 0.000000
-0.100438 -0.250103 -0.121050 -0.577350 -0.577350 -0.577350
-0.149885 -0.201656 -0.120050 -0.577350 -0.577350 -0.577350
-0.148885 -0.201656 -0.121050 -0.577350 -0.577350 -0.577350
0.102150 -0.250103 -0.121050 0.577355 -0.577343 -0.577353
0.151596 -0.201656 -0.120050 0.577355 -0.577343 -0.577353
0.102150 -0.251103 -0.120050 0.577355 -0.577343 -0.577353
-0.100438 0.249726 -0.121050 -0.577347 0.577347 -0.577356
-0.149885 0.201279 -0.120050 -0.577347 0.577347 -0.577356
-0.100438 0.250726 -0.120050 -0.577347 0.577347 -0.577356
0.102150 0.249726 -0.121050 0.577354 0.577342 -0.577354
0.151596 0.201279 -0.120050 0.577354 0.577342 -0.577354
0.150596 0.201279 -0.121050 0.577354 0.577342 -0.577354
-0.100438 -0.250103 -0.121050 -0.594603 -0.568524 -0.568532
0.000856 -0.251103 -0.225989 -0.594603 -0.568524 -0.568532
-0.100438 -0.251103 -0.120050 -0.594603 -0.568524 -0.568532
0.102150 -0.250103 -0.121050 0.719492 0.000000 -0.694501
0.000856 -0.251103 -0.225989 0.719492 0.000000 -0.694501
0.000856 -0.250103 -0.225989 0.719492 0.000000 -0.694501
0.102150 0.249726 -0.121050 0.594603 0.568524 -0.568532
0.000856 0.250726 -0.225989 0.594603 0.568524 -0.568532
0.102150 0.250726 -0.120050 0.594603 0.568524 -0.568532
-0.100438 0.249726 -0.121050 -0.719492 0.000000 -0.694501
0.000856 0.250726 -0.225989 -0.719492 0.000000 -0.694501
0.000856 0.249726 -0.225989 -0.719492 0.000000 -0.694501
0.150596 -0.201656 -0.121050 0.662774 -0.348512 -0.662774
0.151596 -0.000189 -0.225989 0.662774 -0.348512 -0.662774
0.151596 -0.201656 -0.120050 0.662774 -0.348512 -0.662774
0.150596 0.201279 -0.121050 0.000000 0.461961 -0.886900
0.151596 -0.000189 -0.225989 0.000000 0.461961 -0.886900
0.150596 -0.000189 -0.225989 0.000000 0.461961 -0.886900
-0.148885 0.201279 -0.121050 -0.662773 0.348511 -0.662776
-0.149885 -0.000189 -0.225989 -0.662773 0.348511 -0.662776
-0.149885 0.201279 -0.120050 -0.662773 0.348511 -0.662776
-0.148885 -0.201656 -0.121050 -0.000000 -0.461963 -0.886899
-0.149885 -0.000189 -0.225989 -0.000000 -0.461963 -0.886899
-0.148885 -0.000189 -0.225989 -0.000000 -0.461963 -0.886899
-0.098508 -0.245444 -0.139854 0.000000 -1.000000 -0.000000
0.100220 -0.245444 -0.121050 0.000000 -1.000000 -0.000000
-0.098508 -0.245444 -0.121050 0.000000 -1.000000 -0.000000
-0.098508 0.245066 -0.121050 0.000000 1.000000 -0.000000
0.100220 0.245066 -0.139854 0.000000 1.000000 -0.000000
-0.098508 0.245066 -0.139854 0.000000 1.000000 -0.000000
0.145937 -0.199726 -0.139854 1.000000 -0.000000 0.000000
0.145937 0.199349 -0.121050 1.000000 -0.000000 0.000000
0.145937 -0.199726 -0.121050 1.000000 -0.000000 0.000000
-0.144225 0.199349 -0.139854 -1.000000 -0.000000 -0.000000
-0.144225 -0.199726 -0.121050 -1.000000 -0.000000 -0.000000
-0.144225 0.199349 -0.121050 -1.000000 -0.000000 -0.000000
-0.116538 -0.188258 -0.121050 0.000000 0.000000 1.000000
0.088751 -0.217756 -0.121050 0.000000 0.000000 1.000000
0.118249 -0.188258 -0.121050 0.000000 0.000000 1.000000
-0.095324 0.237379 -0.335951 0.000000 0.000000 -1.000000
0.138249 0.196165 -0.335951 0.000000 0.000000 -1.000000
-0.136538 0.196165 -0.335951 0.000000 0.000000 -1.000000
-0.098508 -0.245444 -0.139854 -0.707115 -0.707099 0.000000
-0.144225 -0.199726 -0.121050 -0.707115 -0.707099 0.000000
-0.144225 -0.199726 -0.139854 -0.707115 -0.707099 0.000000
0.145937 -0.199726 -0.139854 0.707115 -0.707099 0.000000
0.100220 -0.245444 -0.121050 0.707115 -0.707099 0.000000
0.100220 -0.245444 -0.139854 0.707115 -0.707099 0.000000
-0.098508 0.245066 -0.121050 -0.707107 0.707107 0.000000
-0.144225 0.199349 -0.139854 -0.707107 0.707107 0.000000
-0.144225 0.199349 -0.121050 -0.707107 0.707107 0.000000
0.145937 0.199349 -0.121050 0.707107 0.707107 0.000000
0.100220 0.245066 -0.139854 0.707107 0.707107 0.000000
0.100220 0.245066 -0.121050 0.707107 0.707107 0.000000
0.118249 0.187881 -0.121050 -0.000000 0.000000 1.000000
-0.087040 0.217379 -0.121050 -0.000000 0.000000 1.000000
-0.116538 0.187881 -0.121050 -0.000000 0.000000 1.000000
-0.136538 -0.196542 -0.335951 0.000000 0.000000 -1.000000
0.097035 -0.237756 -0.335951 0.000000 0.000000 -1.000000
-0.095324 -0.237756 -0.335951 0.000000 0.000000 -1.000000
0.145937 -0.199726 -0.335951 1.000000 -0.000000 0.000000
0.145937 0.199349 -0.310111 1.000000 -0.000000 0.000000
0.145937 -0.199726 -0.310111 1.000000 -0.000000 0.000000
0.145937 0.199349 -0.310111 0.707107 0.707107 0.000000
0.100220 0.245066 -0.335951 0.707107 0.707107 0.000000
0.100220 0.245066 -0.310111 0.707107 0.707107 0.000000
-0.098508 0.245066 -0.310111 0.000000 1.000000 -0.000000
0.100220 0.245066 -0.335951 0.000000 1.000000 -0.000000
-0.098508 0.245066 -0.335951 0.000000 1.000000 -0.000000
-0.098508 0.245066 -0.310111 -0.707107 0.707107 0.000000
-0.144225 0.199349 -0.335951 -0.707107 0.707107 0.000000
-0.144225 0.199349 -0.310111 -0.707107 0.707107 0.000000
-0.144225 0.199349 -0.310111 -1.000000 0.000000 0.000000
-0.144225 -0.199726 -0.335951 -1.000000 0.000000 0.000000
-0.144225 -0.199726 -0.310111 -1.000000 0.000000 0.000000
-0.098508 -0.245444 -0.335951 -0.707114 -0.707099 0.000000
-0.144225 -0.199726 -0.310111 -0.707114 -0.707099 0.000000
-0.144225 -0.199726 -0.335951 -0.707114 -0.707099 0.000000
-0.098508 -0.245444 -0.310111 -0.000000 -1.000000 -0.000000
0.100220 -0.245444 -0.335951 -0.000000 -1.000000 -0.000000
0.100220 -0.245444 -0.310111 -0.000000 -1.000000 -0.000000
0.145937 -0.199726 -0.335951 0.707115 -0.707099 0.000000
0.100220 -0.245444 -0.310111 0.707115 -0.707099 0.000000
0.100220 -0.245444 -0.335951 0.707115 -0.707099 0.000000
0.138249 -0.196542 -0.310111 1.000000 -0.000000 0.000000
0.138249 0.196165 -0.139854 1.000000 -0.000000 0.000000
0.138249 -0.196542 -0.139854 1.000000 -0.000000 0.000000
0.138249 0.196165 -0.139854 0.707107 0.707107 0.000000
0.097035 0.237379 -0.310111 0.707107 0.707107 0.000000
0.097035 0.237379 -0.139854 0.707107 0.707107 0.000000
-0.095324 0.237379 -0.139854 0.000000 1.000000 -0.000000
0.097035 0.237379 -0.310111 0.000000 1.000000 -0.000000
-0.095324 0.237379 -0.310111 0.000000 1.000000 -0.000000
-0.095324 0.237379 -0.139854 -0.707107 0.707107 0.000000
-0.136538 0.196165 -0.310111 -0.707107 0.707107 0.000000
-0.136538 0.196165 -0.139854 -0.707107 0.707107 0.000000
-0.136538 0.196165 -0.139854 -1.000000 0.000000 0.000000
-0.136538 -0.196542 -0.310111 -1.000000 0.000000 0.000000
-0.136538 -0.196542 -0.139854 -1.000000 0.000000 0.000000
-0.095324 -0.237756 -0.310111 -0.707107 -0.707107 0.000000
-0.136538 -0.196542 -0.139854 -0.707107 -0.707107 0.000000
-0.136538 -0.196542 -0.310111 -0.707107 -0.707107 0.000000
-0.095324 -0.237756 -0.139854 -0.000000 -1.000000 -0.000000
0.097035 -0.237756 -0.310111 -0.000000 -1.000000 -0.000000
0.097035 -0.237756 -0.139854 -0.000000 -1.000000 -0.000000
0.138249 -0.196542 -0.310111 0.707107 -0.707107 0.000000
0.097035 -0.237756 -0.139854 0.707107 -0.707107 0.000000
0.097035 -0.237756 -0.310111 0.707107 -0.707107 0.000000
0.097035 -0.237756 -0.139854 0.000000 -0.000000 -1.000000
-0.098508 -0.245444 -0.139854 0.000000 -0.000000 -1.000000
-0.095324 -0.237756 -0.139854 0.000000 -0.000000 -1.000000
0.097035 0.237379 -0.139854 -0.000000 -0.000000 -1.000000
-0.098508 0.245066 -0.139854 -0.000000 -0.000000 -1.000000
0.100220 0.245066 -0.139854 -0.000000 -0.000000 -1.000000
0.138249 0.196165 -0.139854 0.000000 0.000000 -1.000000
0.145937 -0.199726 -0.139854 0.000000 0.000000 -1.000000
0.138249 -0.196542 -0.139854 0.000000 0.000000 -1.000000
-0.136538 -0.196542 -0.139854 -0.000000 -0.000000 -1.000000
-0.144225 0.199349 -0.139854 -0.000000 -0.000000 -1.000000
-0.136538 0.196165 -0.139854 -0.000000 -0.000000 -1.000000
-0.144225 -0.199726 -0.139854 0.000000 -0.000000 -1.000000
0.100220 -0.245444 -0.139854 0.000000 0.000000 -1.000000
-0.095324 0.237379 -0.139854 0.000000 -0.000000 -1.000000
0.145937 0.199349 -0.139854 -0.000000 -0.000000 -1.000000
0.145937 -0.199726 -0.335951 0.000000 0.000000 -1.000000
0.138249 -0.196542 -0.335951 0.000000 0.000000 -1.000000
0.138249 -0.196542 -0.310111 -0.000000 0.000000 1.000000
0.145937 0.199349 -0.310111 -0.000000 0.000000 1.000000
0.138249 0.196165 -0.310111 -0.000000 0.000000 1.000000
0.100220 0.245066 -0.310111 -0.000000 0.000000 1.000000
0.097035 0.237379 -0.310111 -0.000000 0.000000 1.000000
0.100220 0.245066 -0.335951 -0.000000 -0.000000 -1.000000
0.145937 0.199349 -0.335951 -0.000000 -0.000000 -1.000000
-0.098508 0.245066 -0.310111 -0.000000 -0.000000 1.000000
-0.095324 0.237379 -0.310111 -0.000000 -0.000000 1.000000
0.097035 0.237379 -0.335951 -0.000000 -0.000000 -1.000000
-0.098508 0.245066 -0.335951 -0.000000 -0.000000 -1.000000
-0.144225 0.199349 -0.310111 0.000000 -0.000000 1.000000
-0.136538 0.196165 -0.310111 0.000000 -0.000000 1.000000
-0.144225 0.199349 -0.335951 0.000000 -0.000000 -1.000000
-0.144225 -0.199726 -0.310111 0.000000 -0.000000 1.000000
-0.136538 -0.196542 -0.310111 0.000000 -0.000000 1.000000
-0.144225 -0.199726 -0.335951 0.000000 -0.000000 -1.000000
-0.095324 -0.237756 -0.310111 -0.000000 -0.000000 1.000000
-0.098508 -0.245444 -0.310111 -0.000000 -0.000000 1.000000
0.097035 -0.237756 -0.310111 0.000000 -0.000000 1.000000
0.100220 -0.245444 -0.310111 0.000000 -0.000000 1.000000
-0.098508 -0.245444 -0.335951 0.000000 -0.000000 -1.000000
0.100220 -0.245444 -0.335951 0.000000 0.000000 -1.000000
0.145937 -0.199726 -0.310111 0.000000 -0.000000 1.000000
-0.089111 -0.222756 -0.106913 -0.000000 0.000000 1.000000
-0.116538 -0.188258 -0.106913 -0.000000 0.000000 1.000000
-0.121538 -0.190329 -0.106913 -0.000000 0.000000 1.000000
0.090822 -0.222756 -0.106913 -0.000000 0.000000 1.000000
-0.087040 -0.217756 -0.106913 -0.000000 0.000000 1.000000
0.123249 -0.190329 -0.106913 0.000000 -0.000000 1.000000
0.088751 -0.217756 -0.106913 0.000000 -0.000000 1.000000
0.123249 0.189952 -0.106913 -0.000000 -0.000000 1.000000
0.088751 0.217379 -0.106913 -0.000000 -0.000000 1.000000
0.118249 0.187881 -0.106913 -0.000000 -0.000000 1.000000
0.090822 0.222379 -0.106913 0.000000 -0.000000 1.000000
-0.087040 0.217379 -0.106913 0.000000 -0.000000 1.000000
-0.121538 0.189952 -0.106913 0.000000 0.000000 1.000000
-0.089111 0.222379 -0.106913 0.000000 0.000000 1.000000
0.118249 -0.188258 -0.106913 0.000000 -0.000000 1.000000
-0.116538 0.187881 -0.106913 0.000000 0.000000 1.000000
-0.089111 -0.222756 -0.121050 -0.707107 -0.707107 0.000000
-0.121538 -0.190329 -0.106913 -0.707107 -0.707107 0.000000
-0.121538 -0.190329 -0.121050 -0.707107 -0.707107 0.000000
-0.116538 -0.188258 -0.121050 0.707107 0.707107 -0.000000
-0.087040 -0.217756 -0.106913 0.707107 0.707107 -0.000000
-0.087040 -0.217756 -0.121050 0.707107 0.707107 -0.000000
0.090822 -0.222756 -0.121050 0.000000 -1.000000 0.000000
-0.089111 -0.222756 -0.106913 0.000000 -1.000000 0.000000
-0.089111 -0.222756 -0.121050 0.000000 -1.000000 0.000000
-0.087040 -0.217756 -0.121050 0.000000 1.000000 -0.000000
0.088751 -0.217756 -0.106913 0.000000 1.000000 -0.000000
0.088751 -0.217756 -0.121050 0.000000 1.000000 -0.000000
0.123249 -0.190329 -0.121050 0.707107 -0.707107 0.000000
0.090822 -0.222756 -0.106913 0.707107 -0.707107 0.000000
0.090822 -0.222756 -0.121050 0.707107 -0.707107 0.000000
0.088751 -0.217756 -0.121050 -0.707107 0.707107 0.000000
0.118249 -0.188258 -0.106913 -0.707107 0.707107 0.000000
0.118249 -0.188258 -0.121050 -0.707107 0.707107 0.000000
0.090822 0.222379 -0.121050 0.707107 0.707107 -0.000000
0.123249 0.189952 -0.106913 0.707107 0.707107 -0.000000
0.123249 0.189952 -0.121050 0.707107 0.707107 -0.000000
0.118249 0.187881 -0.121050 -0.707107 -0.707107 0.000000
0.088751 0.217379 -0.106913 -0.707107 -0.707107 0.000000
0.088751 0.217379 -0.121050 -0.707107 -0.707107 0.000000
-0.089111 0.222379 -0.121050 0.000000 1.000000 -0.000000
0.090822 0.222379 -0.106913 0.000000 1.000000 -0.000000
0.090822 0.222379 -0.121050 0.000000 1.000000 -0.000000
0.088751 0.217379 -0.121050 0.000000 -1.000000 0.000000
-0.087040 0.217379 -0.106913 0.000000 -1.000000 0.000000
-0.087040 0.217379 -0.121050 0.000000 -1.000000 0.000000
-0.121538 0.189952 -0.121050 -0.707107 0.707107 0.000000
-0.089111 0.222379 -0.106913 -0.707107 0.707107 0.000000
-0.089111 0.222379 -0.121050 -0.707107 0.707107 0.000000
-0.087040 0.217379 -0.121050 0.707107 -0.707107 0.000000
-0.116538 0.187881 -0.106913 0.707107 -0.707107 0.000000
-0.116538 0.187881 -0.121050 0.707107 -0.707107 0.000000
0.123249 0.189952 -0.121050 1.000000 -0.000000 0.000000
0.123249 -0.190329 -0.106913 1.000000 -0.000000 0.000000
0.123249 -0.190329 -0.121050 1.000000 -0.000000 0.000000
0.118249 -0.188258 -0.121050 -1.000000 -0.000000 0.000000
0.118249 0.187881 -0.106913 -1.000000 -0.000000 0.000000
0.118249 0.187881 -0.121050 -1.000000 -0.000000 0.000000
-0.121538 -0.190329 -0.121050 -1.000000 -0.000000 0.000000
-0.121538 0.189952 -0.106913 -1.000000 -0.000000 0.000000
-0.121538 0.189952 -0.121050 -1.000000 -0.000000 0.000000
-0.116538 0.187881 -0.121050 1.000000 -0.000000 0.000000
-0.116538 -0.188258 -0.106913 1.000000 -0.000000 0.000000
-0.116538 -0.188258 -0.121050 1.000000 -0.000000 0.000000
0.013220 0.179474 0.003113 -0.000000 0.000000 1.000000
-0.020921 -0.245862 -0.130063 0.000000 -1.000000 0.000000
0.013220 0.247561 -0.130063 0.000000 1.000000 0.000000
0.013220 -0.225920 -0.016830 0.000000 -0.382701 0.923872
0.013220 -0.245862 -0.064974 0.000000 -0.923879 0.382685
0.013220 0.227619 -0.016830 0.000000 0.923879 0.382685
0.013220 0.179474 0.003113 0.000000 0.382695 0.923875
0.013220 0.178479 -0.001887 0.000000 0.000000 -1.000000
0.013220 -0.240862 -0.065969 0.000000 1.000000 -0.000000
0.013220 0.242561 -0.130063 -0.000000 -1.000000 -0.000000
0.013220 -0.222093 -0.020656 0.000000 0.382686 -0.923878
0.013220 -0.240862 -0.065969 0.000000 0.923881 -0.382679
0.013220 0.223792 -0.020656 0.000000 -0.923881 -0.382679
0.013220 0.178479 -0.001887 0.000000 -0.382679 -0.923881
-0.020921 0.178479 -0.001887 -1.000000 0.000000 0.000000
-0.020921 -0.240862 -0.130063 -1.000000 0.000000 0.000000
0.013220 -0.245862 -0.130063 0.000000 0.000000 -1.000000
0.013220 0.242561 -0.130063 1.000000 0.000000 -0.000000
-0.020921 0.247561 -0.130063 -0.000000 -0.000000 -1.000000
0.102150 0.249726 -0.121050 0.000000 0.000000 -1.000000
-0.100438 -0.250103 -0.121050 -0.577348 -0.577347 -0.577356
-0.100438 -0.251103 -0.120050 -0.577348 -0.577347 -0.577356
-0.149885 -0.201656 -0.120050 -0.577348 -0.577347 -0.577356
0.102150 -0.250103 -0.121050 0.577354 -0.577342 -0.577354
0.150596 -0.201656 -0.121050 0.577354 -0.577342 -0.577354
0.151596 -0.201656 -0.120050 0.577354 -0.577342 -0.577354
-0.100438 0.249726 -0.121050 -0.577350 0.577350 -0.577350
-0.148885 0.201279 -0.121050 -0.577350 0.577350 -0.577350
-0.149885 0.201279 -0.120050 -0.577350 0.577350 -0.577350
0.102150 0.249726 -0.121050 0.577355 0.577343 -0.577352
0.102150 0.250726 -0.120050 0.577355 0.577343 -0.577352
0.151596 0.201279 -0.120050 0.577355 0.577343 -0.577352
-0.100438 -0.250103 -0.121050 -0.719492 0.000000 -0.694501
0.000856 -0.250103 -0.225989 -0.719492 0.000000 -0.694501
0.000856 -0.251103 -0.225989 -0.719492 0.000000 -0.694501
0.102150 -0.250103 -0.121050 0.594603 -0.568523 -0.568532
0.102150 -0.251103 -0.120050 0.594603 -0.568523 -0.568532
0.000856 -0.251103 -0.225989 0.594603 -0.568523 -0.568532
0.102150 0.249726 -0.121050 0.719492 0.000000 -0.694501
0.000856 0.249726 -0.225989 0.719492 0.000000 -0.694501
0.000856 0.250726 -0.225989 0.719492 0.000000 -0.694501
-0.100438 0.249726 -0.121050 -0.594603 0.568523 -0.568532
-0.100438 0.250726 -0.120050 -0.594603 0.568523 -0.568532
0.000856 0.250726 -0.225989 -0.594603 0.568523 -0.568532
0.150596 -0.201656 -0.121050 -0.000000 -0.461963 -0.886899
0.150596 -0.000189 -0.225989 -0.000000 -0.461963 -0.886899
0.151596 -0.000189 -0.225989 -0.000000 -0.461963 -0.886899
0.150596 0.201279 -0.121050 0.662775 0.348510 -0.662775
0.151596 0.201279 -0.120050 0.662775 0.348510 -0.662775
0.151596 -0.000189 -0.225989 0.662775 0.348510 -0.662775
-0.148885 0.201279 -0.121050 0.000000 0.461961 -0.886900
-0.148885 -0.000189 -0.225989 0.000000 0.461961 -0.886900
-0.149885 -0.000189 -0.225989 0.000000 0.461961 -0.886900
-0.148885 -0.201656 -0.121050 -0.662774 -0.348512 -0.662774
-0.149885 -0.201656 -0.120050 -0.662774 -0.348512 -0.662774
-0.149885 -0.000189 -0.225989 -0.662774 -0.348512 -0.662774
0.100220 -0.245444 -0.139854 -0.000000 -1.000000 -0.000000
0.100220 0.245066 -0.121050 0.000000 1.000000 -0.000000
0.145937 0.199349 -0.139854 1.000000 0.000000 0.000000
-0.144225 -0.199726 -0.139854 -1.000000 0.000000 0.000000
-0.087040 -0.217756 -0.121050 0.000000 0.000000 1.000000
-0.098508 -0.245444 -0.121050 -0.707115 -0.707099 -0.000000
0.145937 -0.199726 -0.121050 0.707115 -0.707099 0.000000
-0.098508 0.245066 -0.139854 -0.707107 0.707107 0.000000
0.145937 0.199349 -0.139854 0.707107 0.707107 -0.000000
0.088751 0.217379 -0.121050 -0.000000 0.000000 1.000000
0.145937 0.199349 -0.335951 1.000000 0.000000 0.000000
0.145937 0.199349 -0.335951 0.707107 0.707107 -0.000000
0.100220 0.245066 -0.310111 0.000000 1.000000 -0.000000
-0.098508 0.245066 -0.335951 -0.707107 0.707107 0.000000
-0.144225 0.199349 -0.335951 -1.000000 0.000000 0.000000
-0.098508 -0.245444 -0.310111 -0.707114 -0.707099 -0.000000
-0.098508 -0.245444 -0.335951 0.000000 -1.000000 0.000000
0.145937 -0.199726 -0.310111 0.707115 -0.707099 0.000000
0.138249 0.196165 -0.310111 1.000000 0.000000 0.000000
0.138249 0.196165 -0.310111 0.707107 0.707107 -0.000000
0.097035 0.237379 -0.139854 0.000000 1.000000 -0.000000
-0.095324 0.237379 -0.310111 -0.707107 0.707107 0.000000
-0.136538 0.196165 -0.310111 -1.000000 0.000000 0.000000
-0.095324 -0.237756 -0.139854 -0.707107 -0.707107 -0.000000
-0.095324 -0.237756 -0.310111 0.000000 -1.000000 0.000000
0.138249 -0.196542 -0.139854 0.707107 -0.707107 0.000000
-0.089111 -0.222756 -0.106913 -0.707107 -0.707107 -0.000000
-0.116538 -0.188258 -0.106913 0.707107 0.707107 0.000000
0.090822 -0.222756 -0.106913 0.000000 -1.000000 0.000000
-0.087040 -0.217756 -0.106913 0.000000 1.000000 0.000000
0.123249 -0.190329 -0.106913 0.707107 -0.707107 0.000000
0.088751 -0.217756 -0.106913 -0.707107 0.707107 0.000000
0.090822 0.222379 -0.106913 0.707107 0.707107 0.000000
0.118249 0.187881 -0.106913 -0.707107 -0.707107 -0.000000
-0.089111 0.222379 -0.106913 0.000000 1.000000 0.000000
0.088751 0.217379 -0.106913 0.000000 -1.000000 0.000000
-0.121538 0.189952 -0.106913 -0.707107 0.707107 0.000000
-0.087040 0.217379 -0.106913 0.707107 -0.707107 0.000000
0.123249 0.189952 -0.106913 1.000000 -0.000000 0.000000
0.118249 -0.188258 -0.106913 -1.000000 -0.000000 -0.000000
-0.121538 -0.190329 -0.106913 -1.000000 -0.000000 -0.000000
-0.116538 0.187881 -0.106913 1.000000 -0.000000 0.000000
3 0 1 2
3 3 4 5
3 6 7 8
3 9 10 11
3 12 13 14
3 15 16 17
3 18 19 20
3 21 22 23
3 24 25 26
3 27 28 29
3 30 31 32
3 33 34 35
3 36 37 38
3 39 40 41
3 42 43 44
3 45 46 47
3 48 49 50
3 51 52 53
3 54 55 56
3 57 58 59
3 60 61 62
3 63 64 65
3 47 66 67
3 68 44 69
3 66 50 67
3 68 70 54
3 71 72 63
3 73 59 74
3 71 45 75
3 73 43 76
3 77 78 79
3 80 81 82
3 83 84 85
3 86 87 88
3 89 87 78
3 83 79 90
3 82 91 86
3 85 92 80
3 89 93 88
3 77 94 89
3 83 95 77
3 80 96 85
3 82 97 80
3 86 98 82
3 85 99 83
3 88 100 86
3 78 101 79
3 92 102 81
3 90 103 84
3 91 104 87
3 87 105 78
3 79 106 90
3 91 102 107
3 92 103 108
3 109 110 111
3 112 113 114
3 115 116 117
3 118 119 120
3 121 122 123
3 124 125 126
3 127 128 129
3 130 131 132
3 133 132 122
3 134 123 128
3 135 126 131
3 125 127 129
3 136 137 138
3 139 140 141
3 142 143 144
3 145 146 147
3 148 149 150
3 151 152 153
3 154 155 156
3 157 158 159
3 160 161 162
3 163 164 165
3 166 167 168
3 169 170 171
3 172 173 174
3 175 176 177
3 178 179 180
3 181 182 183
3 184 185 186
3 187 188 189
3 190 191 192
3 193 194 195
3 196 197 198
3 199 200 201
3 202 203 204
3 205 206 207
3 208 209 210
3 211 212 213
3 214 215 216
3 198 216 196
3 200 217 201
3 217 218 219
3 220 221 222
3 223 224 225
3 226 227 228
3 229 230 231
3 232 233 234
3 235 236 237
3 238 239 240
3 241 242 243
3 244 245 246
3 247 248 249
3 250 251 252
3 253 254 255
3 256 257 258
3 259 260 261
3 262 263 264
3 265 266 267
3 268 269 270
3 271 272 273
3 274 275 276
3 277 278 279
3 270 280 277
3 276 281 268
3 282 278 272
3 274 273 283
3 200 284 285
3 286 287 288
3 288 289 290
3 200 291 292
3 290 293 294
3 295 296 291
3 294 297 298
3 199 299 296
3 298 300 301
3 217 299 201
3 219 302 217
3 303 300 304
3 305 304 306
3 218 307 219
3 285 308 218
3 286 306 309
3 310 311 312
3 313 314 310
3 315 316 313
3 317 318 319
3 320 321 318
3 322 321 323
3 317 324 315
3 312 325 322
3 326 327 328
3 329 330 331
3 332 333 334
3 335 336 337
3 338 339 340
3 341 342 343
3 344 345 346
3 347 348 349
3 350 351 352
3 353 354 355
3 356 357 358
3 359 360 361
3 362 363 364
3 365 366 367
3 368 369 370
3 371 372 373
3 0 374 1
3 3 375 4
3 6 376 7
3 9 377 10
3 12 378 13
3 15 379 16
3 18 380 19
3 21 381 22
3 24 382 25
3 27 383 28
3 30 384 31
3 33 385 34
3 36 386 37
3 39 387 40
3 42 76 43
3 45 388 46
3 48 389 49
3 51 390 52
3 54 70 55
3 57 391 58
3 60 392 61
3 63 72 64
3 47 46 66
3 68 42 44
3 66 48 50
3 68 69 70
3 71 75 72
3 73 57 59
3 71 388 45
3 73 74 43
3 77 89 78
3 80 92 81
3 83 90 84
3 86 91 87
3 89 88 87
3 83 77 79
3 82 81 91
3 85 84 92
3 89 94 93
3 77 95 94
3 83 99 95
3 80 97 96
3 82 98 97
3 86 100 98
3 85 96 99
3 88 93 100
3 78 105 101
3 92 108 102
3 90 106 103
3 91 107 104
3 87 104 105
3 79 101 106
3 91 81 102
3 92 84 103
3 121 133 122
3 124 393 125
3 127 134 128
3 130 135 131
3 133 130 132
3 134 121 123
3 135 124 126
3 125 393 127
3 394 395 396
3 397 398 399
3 400 401 402
3 403 404 405
3 406 407 408
3 409 410 411
3 412 413 414
3 415 416 417
3 418 419 420
3 421 422 423
3 424 425 426
3 427 428 429
3 184 430 185
3 187 431 188
3 190 432 191
3 193 433 194
3 196 434 197
3 199 295 200
3 202 435 203
3 205 436 206
3 208 437 209
3 211 438 212
3 214 439 215
3 198 214 216
3 200 285 217
3 217 285 218
3 220 440 221
3 223 441 224
3 226 442 227
3 229 443 230
3 232 444 233
3 235 445 236
3 238 446 239
3 241 447 242
3 244 448 245
3 247 449 248
3 250 450 251
3 253 451 254
3 256 452 257
3 259 453 260
3 262 454 263
3 265 455 266
3 268 281 269
3 271 282 272
3 274 283 275
3 277 280 278
3 270 269 280
3 276 275 281
3 282 279 278
3 274 271 273
3 200 292 284
3 286 309 287
3 288 287 289
3 200 295 291
3 290 289 293
3 295 199 296
3 294 293 297
3 199 201 299
3 298 297 300
3 217 302 299
3 219 307 302
3 303 301 300
3 305 303 304
3 218 308 307
3 285 284 308
3 286 305 306
3 310 314 311
3 313 316 314
3 315 324 316
3 317 320 318
3 320 323 321
3 322 325 321
3 317 319 324
3 312 311 325
3 326 456 327
3 329 457 330
3 332 458 333
3 335 459 336
3 338 460 339
3 341 461 342
3 344 462 345
3 347 463 348
3 350 464 351
3 353 465 354
3 356 466 357
3 359 467 360
3 362 468 363
3 365 469 366
3 368 470 369
3 371 471 372
