ply
format ascii 1.0
comment Created by Blender 2.79 (sub 0) - www.blender.org, source file: ''
element vertex 428
property float x
property float y
property float z
property float nx
property float ny
property float nz
property float s
property float t
property uchar red
property uchar green
property uchar blue
element face 462
property list uchar uint vertex_indices
end_header
0.000120 -0.343820 1.699717 0.378826 -0.882138 -0.279763 0.000000 0.000000 217 69 19
0.094149 -0.306345 1.708882 0.378826 -0.882138 -0.279763 0.000000 0.000000 217 69 19
0.000120 -0.350641 1.721224 0.378826 -0.882138 -0.279763 0.000000 0.000000 217 69 19
0.000120 -0.350641 1.721224 0.006714 0.159093 -0.987213 0.000000 0.000000 217 69 19
0.049032 -0.495433 1.690605 -0.042085 0.193060 -0.980255 0.000000 0.000000 217 69 19
-0.053163 -0.490716 1.688646 0.083865 0.195349 -0.977111 0.000000 0.000000 217 69 19
0.094149 -0.306345 1.708882 -0.193396 0.139988 -0.971068 0.000000 0.000000 217 69 19
-0.094088 -0.305688 1.708487 0.201697 0.148412 -0.968108 0.000000 0.000000 217 69 19
0.000120 -0.343820 1.699717 -0.008576 -0.084262 0.996399 0.000000 0.000000 217 69 19
0.049032 -0.495433 1.690605 -0.035432 -0.071322 0.996796 0.000000 0.000000 217 69 19
0.094149 -0.306345 1.708882 -0.064791 -0.080660 0.994629 0.000000 0.000000 217 69 19
-0.053163 -0.490716 1.688646 0.001312 -0.075625 0.997131 0.000000 0.000000 217 69 19
-0.094088 -0.305688 1.708487 0.054231 -0.094577 0.994018 0.000000 0.000000 217 69 19
-0.094088 -0.305688 1.708487 -0.382488 -0.880703 -0.279305 0.000000 0.000000 217 69 19
0.000120 -0.343820 1.699717 -0.382488 -0.880703 -0.279305 0.000000 0.000000 217 69 19
0.000120 -0.350641 1.721224 -0.382488 -0.880703 -0.279305 0.000000 0.000000 217 69 19
0.000279 -0.266101 1.872259 0.007935 -0.367718 0.929899 0.000000 0.000000 231 227 214
0.031780 -0.303878 1.837724 0.604144 -0.414258 0.680685 0.000000 0.000000 231 227 214
0.024805 -0.197018 1.880733 0.380016 0.010559 0.924894 0.000000 0.000000 231 227 214
0.009109 -0.306604 1.841414 0.057588 -0.596881 0.800256 0.000000 0.000000 231 227 214
0.065824 -0.229157 1.835304 0.792261 -0.177374 0.583819 0.000000 0.000000 231 227 214
0.094149 -0.306345 1.708882 0.920225 -0.310160 0.238594 0.000000 0.000000 231 227 214
0.111895 -0.236749 1.726530 0.979797 -0.170598 0.104251 0.000000 0.000000 231 227 214
0.085364 -0.189863 1.806947 0.879360 0.005493 0.476089 0.000000 0.000000 231 227 214
0.104588 -0.219716 1.685772 0.809229 -0.185125 -0.557543 0.000000 0.000000 231 227 214
0.062603 -0.085516 1.820613 0.682516 0.347606 0.642872 0.000000 0.000000 231 227 214
0.118702 -0.077582 1.701620 0.981811 0.171453 0.081515 0.000000 0.000000 231 227 214
0.095561 -0.023261 1.703284 0.766076 0.622913 0.158361 0.000000 0.000000 231 227 214
0.070868 -0.052080 1.468344 0.951353 0.272286 -0.143956 0.000000 0.000000 231 227 214
0.033610 0.008257 1.404471 0.589526 0.787347 -0.180303 0.000000 0.000000 231 227 214
0.058120 -0.101588 1.128700 0.889889 0.445418 -0.098300 0.000000 0.000000 231 227 214
0.057435 -0.012582 1.746430 0.484512 0.764855 0.424512 0.000000 0.000000 231 227 214
-0.003713 0.032898 1.676935 -0.031007 0.989868 0.138401 0.000000 0.000000 231 227 214
-0.008621 0.001002 1.759078 -0.116001 0.861019 0.495132 0.000000 0.000000 231 227 214
0.022360 -0.060683 1.830562 0.264901 0.592547 0.760704 0.000000 0.000000 231 227 214
-0.092343 -0.021737 1.709697 -0.736930 0.637501 0.224616 0.000000 0.000000 231 227 214
-0.018739 -0.062353 1.832763 -0.242347 0.598682 0.763421 0.000000 0.000000 231 227 214
-0.004327 -0.144962 1.873585 -0.063753 0.303415 0.950713 0.000000 0.000000 231 227 214
0.005444 0.035013 1.490004 0.086093 0.994537 -0.058596 0.000000 0.000000 231 227 214
0.006547 -0.062804 1.103475 0.037538 0.968780 -0.245033 0.000000 0.000000 231 227 214
0.084815 -0.076404 1.549578 0.957762 -0.214118 -0.191778 0.000000 0.000000 231 227 214
0.062952 -0.132867 1.382341 0.677053 -0.733970 0.053346 0.000000 0.000000 231 227 214
0.065038 -0.114559 1.514067 0.747642 -0.662893 -0.039186 0.000000 0.000000 231 227 214
0.000120 -0.150210 1.425822 0.112827 -0.993439 0.017212 0.000000 0.000000 231 227 214
0.038166 -0.142814 1.559825 0.462844 -0.873379 -0.151372 0.000000 0.000000 231 227 214
0.108102 -0.093348 1.667283 0.925321 -0.219520 -0.309153 0.000000 0.000000 231 227 214
0.056101 -0.150086 1.632893 0.622852 -0.511856 -0.591601 0.000000 0.000000 231 227 214
0.001487 -0.169732 1.619704 -0.001953 -0.982177 -0.187872 0.000000 0.000000 231 227 214
-0.023942 -0.148907 1.537806 -0.287820 -0.954344 -0.079501 0.000000 0.000000 231 227 214
-0.057361 -0.143219 1.633394 -0.639821 -0.509842 -0.575030 0.000000 0.000000 231 227 214
-0.099123 -0.097517 1.657465 -0.853450 -0.390759 -0.344768 0.000000 0.000000 231 227 214
0.094149 -0.306345 1.708882 0.395062 -0.314280 -0.863186 0.000000 0.000000 231 227 214
0.001487 -0.169732 1.619704 -0.013276 -0.364025 -0.931272 0.000000 0.000000 231 227 214
0.016710 -0.308331 1.676584 0.080599 -0.370830 -0.925169 0.000000 0.000000 231 227 214
-0.094088 -0.305688 1.708487 -0.340251 -0.350322 -0.872616 0.000000 0.000000 231 227 214
-0.106365 -0.211860 1.685812 -0.806421 -0.188940 -0.560320 0.000000 0.000000 231 227 214
-0.118678 -0.076201 1.693458 -0.986999 0.156316 0.036714 0.000000 0.000000 231 227 214
-0.115081 -0.218275 1.726085 -0.985321 -0.120640 0.120640 0.000000 0.000000 231 227 214
-0.094088 -0.305688 1.708487 -0.920377 -0.299997 0.250710 0.000000 0.000000 231 227 214
-0.070187 -0.223890 1.830863 -0.833155 -0.136662 0.535874 0.000000 0.000000 231 227 214
-0.061016 -0.082705 1.820631 -0.685842 0.376415 0.622791 0.000000 0.000000 231 227 214
-0.031728 -0.303129 1.837820 -0.587451 -0.438063 0.680410 0.000000 0.000000 231 227 214
-0.069956 -0.035381 1.488475 -0.906186 0.394360 -0.152532 0.000000 0.000000 231 227 214
-0.031968 -0.202135 1.875843 -0.473891 -0.018250 0.880367 0.000000 0.000000 231 227 214
-0.028777 0.015957 1.426573 -0.521317 0.834803 -0.176855 0.000000 0.000000 231 227 214
-0.040004 -0.080691 1.106478 -0.843257 0.522019 -0.128025 0.000000 0.000000 231 227 214
-0.070552 -0.092019 1.452008 -0.953063 -0.254311 -0.164098 0.000000 0.000000 231 227 214
-0.052796 -0.126576 1.444895 -0.652455 -0.752098 -0.092746 0.000000 0.000000 231 227 214
0.292386 0.479771 0.429058 0.818110 0.485183 -0.308603 0.000000 0.000000 231 227 214
0.161154 0.632453 0.399838 0.521622 0.511887 -0.682516 0.000000 0.000000 231 227 214
0.212958 0.612750 0.499667 0.836085 0.522080 -0.168310 0.000000 0.000000 231 227 214
0.347750 0.378340 0.597611 0.891720 0.390515 0.228614 0.000000 0.000000 231 227 214
0.161154 0.489927 0.304303 0.429853 0.473861 -0.768517 0.000000 0.000000 231 227 214
0.237226 0.582539 0.582420 0.777764 0.554918 0.295144 0.000000 0.000000 231 227 214
0.074771 0.755570 0.597195 0.523179 0.259499 0.811731 0.000000 0.000000 231 227 214
0.185603 0.464730 0.714600 0.438246 0.498154 0.748161 0.000000 0.000000 231 227 214
0.175866 0.776954 0.501023 0.884884 0.203345 -0.419050 0.000000 0.000000 231 227 214
0.303818 0.306500 0.298702 0.717002 0.487106 -0.498611 0.000000 0.000000 231 227 214
0.161592 0.334952 0.228456 0.244270 0.392804 -0.886563 0.000000 0.000000 231 227 214
0.394868 0.227032 0.430255 0.976226 0.145756 -0.160344 0.000000 0.000000 231 227 214
0.006913 0.527199 0.277365 0.024323 0.489273 -0.871761 0.000000 0.000000 231 227 214
0.331355 0.159765 0.188529 0.921903 0.189306 -0.337901 0.000000 0.000000 231 227 214
0.375737 0.071346 0.441655 0.931883 -0.318888 -0.172765 0.000000 0.000000 231 227 214
0.330096 0.076250 0.210331 0.854976 -0.435194 -0.282083 0.000000 0.000000 231 227 214
0.278976 0.267960 0.217961 0.643086 0.598346 -0.477889 0.000000 0.000000 231 227 214
0.246130 -0.020106 0.295282 0.471450 -0.804559 -0.361064 0.000000 0.000000 231 227 214
0.394195 0.178531 0.582050 0.994598 0.029389 0.099368 0.000000 0.000000 231 227 214
0.264841 0.028311 0.189623 0.364666 -0.845424 -0.390210 0.000000 0.000000 231 227 214
0.001210 0.436473 0.790714 0.008942 0.529527 0.848231 0.000000 0.000000 231 227 214
0.000661 0.752591 0.624563 -0.000061 0.279794 0.960051 0.000000 0.000000 231 227 214
-0.074254 0.755378 0.597017 -0.525742 0.264229 0.808527 0.000000 0.000000 231 227 214
-0.014038 0.392250 0.225714 -0.026521 0.314249 -0.948943 0.000000 0.000000 231 227 214
0.155351 0.231274 0.196115 -0.187292 0.187445 -0.964232 0.000000 0.000000 231 227 214
0.278976 0.267960 0.217961 0.081606 0.292306 -0.952818 0.000000 0.000000 231 227 214
0.353646 -0.038333 0.549369 0.856563 -0.478225 -0.193762 0.000000 0.000000 231 227 214
0.358184 -0.057391 0.708417 0.935148 -0.330973 0.126072 0.000000 0.000000 231 227 214
0.363581 0.187901 0.709669 0.902829 0.158971 0.399487 0.000000 0.000000 231 227 214
0.333046 -0.024890 0.803093 0.868648 -0.129734 0.478103 0.000000 0.000000 231 227 214
0.273591 0.035089 0.874074 0.712729 0.099704 0.694266 0.000000 0.000000 231 227 214
0.296056 0.261046 0.772477 0.684164 0.368938 0.629109 0.000000 0.000000 231 227 214
0.200389 0.182209 0.891627 0.472884 0.348521 0.809229 0.000000 0.000000 231 227 214
0.137664 -0.005286 0.981982 0.486740 0.298685 0.820856 0.000000 0.000000 231 227 214
0.158852 -0.155025 0.997418 0.750633 -0.141514 0.645344 0.000000 0.000000 231 227 214
0.272018 -0.187418 0.759038 0.757103 -0.645192 0.102237 0.000000 0.000000 231 227 214
0.175171 -0.255303 0.651505 0.485519 -0.832972 -0.265267 0.000000 0.000000 231 227 214
0.237598 -0.084030 0.430546 0.514206 -0.768670 -0.380352 0.000000 0.000000 231 227 214
0.097159 -0.305581 0.817391 0.499405 -0.866359 0.001007 0.000000 0.000000 231 227 214
0.123580 -0.246461 0.974928 0.704856 -0.649190 0.285775 0.000000 0.000000 231 227 214
0.239787 -0.159608 0.877309 0.800501 -0.385754 0.458632 0.000000 0.000000 231 227 214
0.059946 -0.321946 0.940152 0.503922 -0.840632 0.198401 0.000000 0.000000 231 227 214
0.059457 -0.283284 1.051615 0.502213 -0.816279 0.285318 0.000000 0.000000 231 227 214
0.000501 -0.315387 1.012089 0.024201 -0.953368 0.300821 0.000000 0.000000 231 227 214
0.000501 -0.355631 0.879180 -0.000031 -0.999603 0.027833 0.000000 0.000000 231 227 214
0.000729 -0.313609 0.649164 0.004761 -0.938780 -0.344462 0.000000 0.000000 231 227 214
0.149021 -0.109777 0.400668 0.268410 -0.834590 -0.481033 0.000000 0.000000 231 227 214
-0.003763 -0.078867 0.310022 0.004517 -0.699850 -0.714255 0.000000 0.000000 231 227 214
0.124367 -0.065954 0.301820 0.069765 -0.769738 -0.634480 0.000000 0.000000 231 227 214
0.061439 0.110520 0.217805 -0.119480 -0.287790 -0.950194 0.000000 0.000000 231 227 214
-0.144612 -0.111510 0.401228 -0.252571 -0.833033 -0.492172 0.000000 0.000000 231 227 214
0.173129 0.001476 0.228513 -0.175878 -0.717124 -0.674367 0.000000 0.000000 231 227 214
0.121701 0.121847 0.193539 -0.503830 -0.119205 -0.855495 0.000000 0.000000 231 227 214
0.201232 0.209465 0.142162 -0.682852 0.197851 -0.703238 0.000000 0.000000 231 227 214
0.206392 0.122470 0.115380 -0.632710 -0.188726 -0.750999 0.000000 0.000000 231 227 214
0.236357 0.182636 0.101240 -0.686789 0.176336 -0.705100 0.000000 0.000000 231 227 214
0.271918 0.072711 0.111339 0.326182 -0.673269 -0.663533 0.000000 0.000000 231 227 214
0.304003 0.159314 0.113190 0.878475 -0.219977 -0.424055 0.000000 0.000000 231 227 214
-0.111153 0.123798 0.204047 0.378216 -0.216468 -0.900021 0.000000 0.000000 231 227 214
-0.151651 -0.039232 0.275149 -0.033387 -0.749626 -0.660970 0.000000 0.000000 231 227 214
-0.240027 -0.020744 0.292356 -0.463210 -0.805322 -0.369945 0.000000 0.000000 231 227 214
-0.197320 0.025404 0.184589 -0.123875 -0.872982 -0.471694 0.000000 0.000000 231 227 214
-0.263838 0.028311 0.189623 -0.357128 -0.846919 -0.393902 0.000000 0.000000 231 227 214
-0.249151 0.074892 0.113010 -0.094729 -0.842433 -0.530351 0.000000 0.000000 231 227 214
-0.282335 0.077883 0.114747 -0.591174 -0.642354 -0.487716 0.000000 0.000000 231 227 214
-0.332132 0.073012 0.221576 -0.862362 -0.447737 -0.236274 0.000000 0.000000 231 227 214
-0.353341 0.082910 0.334627 -0.892788 -0.394757 -0.216865 0.000000 0.000000 231 227 214
-0.327922 0.153164 0.181090 -0.927641 0.174627 -0.330088 0.000000 0.000000 231 227 214
-0.396601 0.188773 0.436718 -0.989776 0.042695 -0.135960 0.000000 0.000000 231 227 214
-0.349857 -0.054568 0.569977 -0.862880 -0.480483 -0.156499 0.000000 0.000000 231 227 214
-0.395611 0.191054 0.568526 -0.994720 0.052492 0.087954 0.000000 0.000000 231 227 214
-0.351611 -0.046214 0.754669 -0.922849 -0.247871 0.294748 0.000000 0.000000 231 227 214
-0.348261 0.372157 0.601181 -0.895260 0.380016 0.232490 0.000000 0.000000 231 227 214
-0.323140 0.431394 0.441455 -0.862392 0.449385 -0.232948 0.000000 0.000000 231 227 214
-0.211955 0.612750 0.499667 -0.838984 0.515152 -0.175176 0.000000 0.000000 231 227 214
-0.163285 0.631687 0.405029 -0.570177 0.511826 -0.642537 0.000000 0.000000 231 227 214
-0.236223 0.582539 0.582420 -0.783441 0.554857 0.279824 0.000000 0.000000 231 227 214
-0.173480 0.780571 0.499512 -0.886685 0.202887 -0.415387 0.000000 0.000000 231 227 214
-0.302816 0.306500 0.298702 -0.605274 0.545000 -0.580157 0.000000 0.000000 231 227 214
-0.138377 0.501464 0.297095 -0.359294 0.470595 -0.805841 0.000000 0.000000 231 227 214
-0.161283 0.334160 0.228217 -0.254830 0.400189 -0.880276 0.000000 0.000000 231 227 214
-0.156618 0.231836 0.194697 -0.039979 0.160863 -0.986145 0.000000 0.000000 231 227 214
-0.277973 0.267960 0.217961 -0.585253 0.570116 -0.576556 0.000000 0.000000 231 227 214
-0.287023 0.315736 0.744857 -0.659078 0.409192 0.630970 0.000000 0.000000 231 227 214
-0.173553 0.419871 0.748257 -0.371136 0.491897 0.787561 0.000000 0.000000 231 227 214
-0.362281 0.194847 0.706188 -0.893277 0.174963 0.414045 0.000000 0.000000 231 227 214
0.000501 0.777710 0.456021 -0.004089 0.586596 -0.809839 0.000000 0.000000 231 227 214
0.076034 0.793696 0.486715 0.171117 0.505173 -0.845851 0.000000 0.000000 231 227 214
-0.011946 0.893337 0.541578 -0.048128 0.393872 -0.917875 0.000000 0.000000 231 227 214
0.064726 0.944727 0.548574 -0.091159 0.361675 -0.927824 0.000000 0.000000 231 227 214
0.000501 0.992057 0.576183 -0.032746 0.334300 -0.941893 0.000000 0.000000 231 227 214
-0.056516 0.952865 0.556485 0.084597 0.301187 -0.949767 0.000000 0.000000 231 227 214
-0.173480 0.780571 0.499512 -0.118381 0.491440 -0.862819 0.000000 0.000000 231 227 214
0.175866 0.776954 0.501023 0.203558 0.489090 -0.848140 0.000000 0.000000 231 227 214
-0.005240 0.319591 0.872946 -0.028077 0.521439 0.852809 0.000000 0.000000 231 227 214
0.115294 0.242907 0.892048 0.248756 0.461409 0.851558 0.000000 0.000000 231 227 214
0.000465 0.056990 0.994432 -0.002899 0.487411 0.873165 0.000000 0.000000 231 227 214
-0.187101 0.173937 0.901460 -0.430403 0.371715 0.822535 0.000000 0.000000 231 227 214
0.020841 -0.029905 1.061168 0.150914 0.587115 0.795282 0.000000 0.000000 231 227 214
0.089924 -0.062980 1.039921 0.553697 0.315653 0.770531 0.000000 0.000000 231 227 214
-0.049481 -0.041399 1.055032 -0.337199 0.551775 0.762749 0.000000 0.000000 231 227 214
-0.132123 -0.012201 0.986592 -0.490493 0.315561 0.812250 0.000000 0.000000 231 227 214
-0.089198 -0.063166 1.039658 -0.569597 0.300363 0.765038 0.000000 0.000000 231 227 214
-0.278826 0.066319 0.865438 -0.732383 0.120914 0.670034 0.000000 0.000000 231 227 214
-0.207085 -0.089549 0.946528 -0.748100 -0.040101 0.662343 0.000000 0.000000 231 227 214
-0.149541 -0.161092 1.011946 -0.816248 -0.145299 0.559069 0.000000 0.000000 231 227 214
-0.134823 -0.239278 0.963926 -0.730888 -0.618305 0.288888 0.000000 0.000000 231 227 214
-0.238785 -0.159608 0.877309 -0.795587 -0.362621 0.485305 0.000000 0.000000 231 227 214
-0.250062 -0.195501 0.801270 -0.731712 -0.655232 0.187719 0.000000 0.000000 231 227 214
-0.096157 -0.305581 0.817391 -0.500351 -0.865810 -0.000519 0.000000 0.000000 231 227 214
-0.058944 -0.321946 0.940152 -0.494766 -0.849025 0.185278 0.000000 0.000000 231 227 214
-0.061239 -0.290443 1.045223 -0.483596 -0.841243 0.241646 0.000000 0.000000 231 227 214
-0.155902 -0.266136 0.658131 -0.455245 -0.852657 -0.256325 0.000000 0.000000 231 227 214
-0.243006 -0.118768 0.492511 -0.536943 -0.749138 -0.387860 0.000000 0.000000 231 227 214
-0.260865 -0.192447 0.704578 -0.711875 -0.698691 -0.071017 0.000000 0.000000 231 227 214
0.000501 0.933652 0.614716 -0.001495 0.242195 0.970214 0.000000 0.000000 231 227 214
0.059119 0.958015 0.594163 0.325144 0.246803 0.912870 0.000000 0.000000 231 227 214
0.000501 0.992057 0.576183 0.002350 0.550707 0.834681 0.000000 0.000000 231 227 214
-0.058967 0.959705 0.593443 -0.328898 0.247383 0.911344 0.000000 0.000000 231 227 214
0.175866 0.776954 0.501023 0.672262 0.112522 0.731681 0.000000 0.000000 231 227 214
0.212958 0.612750 0.499667 0.665822 0.144353 0.731986 0.000000 0.000000 231 227 214
-0.173480 0.780571 0.499512 -0.680532 0.118137 0.723075 0.000000 0.000000 231 227 214
-0.211955 0.612750 0.499667 -0.672170 0.154759 0.724021 0.000000 0.000000 231 227 214
0.266658 0.212998 0.135658 0.319987 0.743980 -0.586535 0.000000 0.000000 231 227 214
0.304003 0.159314 0.113190 0.619343 0.628010 -0.471114 0.000000 0.000000 231 227 214
0.236357 0.182636 0.101240 0.105808 0.697623 -0.708579 0.000000 0.000000 231 227 214
0.201232 0.209465 0.142162 -0.095340 0.867672 -0.487869 0.000000 0.000000 231 227 214
0.155351 0.231274 0.196115 -0.132878 0.854060 -0.502853 0.000000 0.000000 231 227 214
0.278976 0.267960 0.217961 -0.152776 0.832240 -0.532884 0.000000 0.000000 231 227 214
0.175866 0.776954 0.501023 0.823695 0.563494 -0.062929 0.000000 0.000000 231 227 214
0.064726 0.944727 0.548574 0.745170 0.659230 -0.100467 0.000000 0.000000 231 227 214
0.059119 0.958015 0.594163 0.649648 0.747581 -0.137974 0.000000 0.000000 231 227 214
0.000501 0.992057 0.576183 0.534074 0.827021 -0.175359 0.000000 0.000000 231 227 214
-0.305119 0.155321 0.114113 -0.670553 0.604938 -0.429334 0.000000 0.000000 231 227 214
-0.265946 0.216082 0.138544 -0.340281 0.746117 -0.572253 0.000000 0.000000 231 227 214
-0.239632 0.185155 0.101171 -0.159734 0.702322 -0.693686 0.000000 0.000000 231 227 214
-0.198719 0.211448 0.143879 0.098239 0.870785 -0.481674 0.000000 0.000000 231 227 214
-0.156618 0.231836 0.194697 0.130314 0.859188 -0.494736 0.000000 0.000000 231 227 214
-0.277973 0.267960 0.217961 0.148839 0.838038 -0.524888 0.000000 0.000000 231 227 214
-0.305119 0.155321 0.114113 -0.900113 -0.205817 -0.383892 0.000000 0.000000 231 227 214
-0.058967 0.959705 0.593443 -0.643849 0.743584 -0.180334 0.000000 0.000000 231 227 214
-0.056516 0.952865 0.556485 -0.693197 0.699057 -0.175359 0.000000 0.000000 231 227 214
-0.173480 0.780571 0.499512 -0.790796 0.590320 -0.161718 0.000000 0.000000 231 227 214
0.000501 0.992057 0.576183 -0.511032 0.838496 -0.189093 0.000000 0.000000 231 227 214
-0.239632 0.185155 0.101171 0.628712 0.228797 -0.743187 0.000000 0.000000 231 227 214
-0.198719 0.211448 0.143879 0.665639 0.238319 -0.707175 0.000000 0.000000 231 227 214
-0.203348 0.133577 0.115988 0.627216 -0.071993 -0.775475 0.000000 0.000000 231 227 214
-0.156393 0.121309 0.153954 0.675375 -0.143162 -0.723411 0.000000 0.000000 231 227 214
-0.156618 0.231836 0.194697 0.701163 0.247841 -0.668508 0.000000 0.000000 231 227 214
-0.197320 0.025404 0.184589 0.611194 -0.440230 -0.657704 0.000000 0.000000 231 227 214
-0.249151 0.074892 0.113010 0.576678 -0.414350 -0.704062 0.000000 0.000000 231 227 214
0.148405 -0.176027 -0.164860 -0.148656 -0.987762 -0.046876 0.000000 0.000000 224 148 93
0.181557 -0.181017 -0.164860 -0.148656 -0.987762 -0.046876 0.000000 0.000000 224 148 93
0.152637 -0.178094 -0.134738 -0.148656 -0.987762 -0.046876 0.000000 0.000000 224 148 93
0.260669 0.147056 -0.029043 -0.561968 0.825312 -0.054964 0.000000 0.000000 224 148 93
0.224604 0.122954 -0.022211 -0.702750 0.707755 -0.072054 0.000000 0.000000 224 148 93
0.236357 0.182636 0.101240 -0.853206 0.496719 -0.158910 0.000000 0.000000 224 148 93
0.206392 0.122470 0.115380 -0.899655 0.420423 -0.117588 0.000000 0.000000 224 148 93
0.233462 0.158906 -0.165714 -0.909391 0.415845 -0.004700 0.000000 0.000000 224 148 93
0.205331 0.081523 -0.120708 -0.953887 0.252266 -0.162481 0.000000 0.000000 224 148 93
0.181737 -0.057009 -0.129271 -0.972991 0.230110 -0.017670 0.000000 0.000000 224 148 93
0.152637 -0.178094 -0.134738 -0.959990 0.243019 0.138981 0.000000 0.000000 224 148 93
0.148405 -0.176027 -0.164860 -0.957976 0.243660 0.151280 0.000000 0.000000 224 148 93
0.224561 -0.122733 -0.164859 0.804498 -0.593585 0.019135 0.000000 0.000000 224 148 93
0.225107 -0.121026 -0.134912 0.749199 -0.636036 0.184637 0.000000 0.000000 224 148 93
0.181557 -0.181017 -0.164860 0.587329 -0.660115 0.468245 0.000000 0.000000 224 148 93
0.152637 -0.178094 -0.134738 0.514542 -0.651692 0.557207 0.000000 0.000000 224 148 93
0.316143 -0.196337 -0.164795 0.886166 -0.386914 -0.254921 0.000000 0.000000 224 148 93
0.362758 -0.089533 -0.164862 0.939817 -0.340068 -0.032289 0.000000 0.000000 224 148 93
0.326825 -0.191706 -0.134692 0.899350 -0.380078 -0.216041 0.000000 0.000000 224 148 93
0.362869 -0.087913 -0.134719 0.944548 -0.328013 0.014130 0.000000 0.000000 224 148 93
0.429742 -0.125429 -0.164860 0.677541 -0.732963 0.060457 0.000000 0.000000 224 148 93
0.454682 -0.102375 -0.164859 0.707785 -0.697317 0.112888 0.000000 0.000000 224 148 93
0.428434 -0.124167 -0.134912 0.701682 -0.705130 0.101871 0.000000 0.000000 224 148 93
0.452109 -0.098897 -0.137983 0.730216 -0.665151 0.155950 0.000000 0.000000 224 148 93
0.429742 -0.125429 -0.164860 -0.472243 -0.881283 0.016511 0.000000 0.000000 224 148 93
0.428434 -0.124167 -0.134912 -0.474899 -0.879696 0.024140 0.000000 0.000000 224 148 93
0.362758 -0.089533 -0.164862 -0.480605 -0.875942 0.040986 0.000000 0.000000 224 148 93
0.362869 -0.087913 -0.134719 -0.483200 -0.874142 0.048769 0.000000 0.000000 224 148 93
0.224561 -0.122733 -0.164859 -0.625477 -0.778222 0.055757 0.000000 0.000000 224 148 93
0.316143 -0.196337 -0.164795 -0.556780 -0.783013 0.277200 0.000000 0.000000 224 148 93
0.225107 -0.121026 -0.134912 -0.614673 -0.782464 0.099429 0.000000 0.000000 224 148 93
0.326825 -0.191706 -0.134692 -0.542497 -0.779748 0.312449 0.000000 0.000000 224 148 93
0.287538 0.103642 -0.027294 0.684561 -0.716208 0.135441 0.000000 0.000000 224 148 93
0.304003 0.159314 0.113190 0.937132 -0.347789 0.027985 0.000000 0.000000 224 148 93
0.271918 0.072711 0.111339 0.898801 -0.438307 0.003449 0.000000 0.000000 224 148 93
0.253026 0.076298 -0.029243 0.615314 -0.764550 0.191839 0.000000 0.000000 224 148 93
0.307749 0.076109 -0.109269 0.588519 -0.700217 0.404065 0.000000 0.000000 224 148 93
0.250544 0.029784 -0.102770 0.601093 -0.684378 0.412641 0.000000 0.000000 224 148 93
0.224604 0.122954 -0.022211 -0.843959 -0.529862 0.083468 0.000000 0.000000 224 148 93
0.253026 0.076298 -0.029243 -0.794977 -0.576312 0.189276 0.000000 0.000000 224 148 93
0.206392 0.122470 0.115380 -0.673635 -0.738792 0.018647 0.000000 0.000000 224 148 93
0.250544 0.029784 -0.102770 -0.762505 -0.531358 0.368999 0.000000 0.000000 224 148 93
0.205331 0.081523 -0.120708 -0.758843 -0.533799 0.373028 0.000000 0.000000 224 148 93
0.271918 0.072711 0.111339 -0.601276 -0.796716 0.060457 0.000000 0.000000 224 148 93
0.094149 -0.306345 1.708882 0.384991 -0.002625 -0.922910 0.000000 0.000000 224 148 93
0.049032 -0.495433 1.690605 0.107547 -0.055788 -0.992615 0.000000 0.000000 224 148 93
0.016710 -0.308331 1.676584 0.070589 0.003021 -0.997497 0.000000 0.000000 224 148 93
-0.053163 -0.490716 1.688646 -0.080020 -0.035218 -0.996155 0.000000 0.000000 224 148 93
-0.094088 -0.305688 1.708487 -0.275521 0.042024 -0.960356 0.000000 0.000000 224 148 93
0.362758 -0.089533 -0.164862 -0.001099 -0.003479 -0.999969 0.000000 0.000000 224 148 93
0.316143 -0.196337 -0.164795 0.000122 -0.000671 -0.999969 0.000000 0.000000 224 148 93
0.224561 -0.122733 -0.164859 0.002503 -0.002655 -0.999969 0.000000 0.000000 224 148 93
0.233462 0.158906 -0.165714 0.000732 -0.003082 -0.999969 0.000000 0.000000 224 148 93
0.181557 -0.181017 -0.164860 0.000732 -0.002594 -0.999969 0.000000 0.000000 224 148 93
0.429742 -0.125429 -0.164860 0.000641 -0.002533 -0.999969 0.000000 0.000000 224 148 93
0.148405 -0.176027 -0.164860 -0.000366 -0.002441 -0.999969 0.000000 0.000000 224 148 93
0.454682 -0.102375 -0.164859 0.001709 -0.001801 -0.999969 0.000000 0.000000 224 148 93
0.452109 -0.098897 -0.137983 0.053438 -0.034364 0.997955 0.000000 0.000000 224 148 93
0.362869 -0.087913 -0.134719 0.003937 -0.168218 0.985717 0.000000 0.000000 224 148 93
0.428434 -0.124167 -0.134912 0.045991 0.077914 0.995880 0.000000 0.000000 224 148 93
0.250544 0.029784 -0.102770 -0.103488 -0.112003 0.988281 0.000000 0.000000 224 148 93
0.307749 0.076109 -0.109269 0.146031 -0.041658 0.988372 0.000000 0.000000 224 148 93
0.181737 -0.057009 -0.129271 -0.049745 -0.128117 0.990478 0.000000 0.000000 224 148 93
0.225107 -0.121026 -0.134912 0.024476 -0.054140 0.998230 0.000000 0.000000 224 148 93
0.326825 -0.191706 -0.134692 -0.001587 0.000793 0.999969 0.000000 0.000000 224 148 93
0.205331 0.081523 -0.120708 -0.364330 0.004486 0.931242 0.000000 0.000000 224 148 93
0.152637 -0.178094 -0.134738 0.046663 -0.056215 0.997314 0.000000 0.000000 224 148 93
0.260669 0.147056 -0.029043 0.773522 0.612415 -0.163030 0.000000 0.000000 224 148 93
0.236357 0.182636 0.101240 0.349406 0.918393 -0.185583 0.000000 0.000000 224 148 93
0.304003 0.159314 0.113190 0.473373 0.853511 -0.217780 0.000000 0.000000 224 148 93
0.287538 0.103642 -0.027294 0.847682 0.520524 -0.102206 0.000000 0.000000 224 148 93
0.307749 0.076109 -0.109269 0.776788 0.626301 -0.065706 0.000000 0.000000 224 148 93
0.233462 0.158906 -0.165714 0.770562 0.631672 -0.084872 0.000000 0.000000 224 148 93
0.452109 -0.098897 -0.137983 0.763421 0.645650 -0.016694 0.000000 0.000000 224 148 93
0.454682 -0.102375 -0.164859 0.763146 0.646107 -0.010559 0.000000 0.000000 224 148 93
0.031780 -0.303878 1.837724 0.482711 -0.505661 0.715018 0.000000 0.000000 224 148 93
0.049032 -0.495433 1.690605 0.869900 -0.248726 0.425855 0.000000 0.000000 224 148 93
0.094149 -0.306345 1.708882 0.869900 -0.248726 0.425855 0.000000 0.000000 224 148 93
0.009109 -0.306604 1.841414 0.031953 -0.608539 0.792871 0.000000 0.000000 224 148 93
0.049032 -0.495433 1.690605 -0.028474 -0.627461 0.778100 0.000000 0.000000 224 148 93
-0.053163 -0.490716 1.688646 -0.052431 -0.627094 0.777154 0.000000 0.000000 224 148 93
-0.031728 -0.303129 1.837820 -0.432478 -0.530381 0.729118 0.000000 0.000000 224 148 93
-0.053163 -0.490716 1.688646 -0.872860 -0.238685 0.425581 0.000000 0.000000 224 148 93
-0.094088 -0.305688 1.708487 -0.872860 -0.238685 0.425581 0.000000 0.000000 224 148 93
-0.180555 -0.181017 -0.164860 0.148656 -0.987762 -0.046876 0.000000 0.000000 224 148 93
-0.147403 -0.176027 -0.164860 0.148656 -0.987762 -0.046876 0.000000 0.000000 224 148 93
-0.151634 -0.178094 -0.134738 0.148656 -0.987762 -0.046876 0.000000 0.000000 224 148 93
-0.239632 0.185155 0.101171 0.804468 0.566454 -0.178594 0.000000 0.000000 224 148 93
-0.223737 0.123443 -0.022950 0.737114 0.672689 -0.064302 0.000000 0.000000 224 148 93
-0.249090 0.144310 -0.027861 0.640736 0.765893 -0.053346 0.000000 0.000000 224 148 93
-0.203348 0.133577 0.115988 0.828364 0.536576 -0.160680 0.000000 0.000000 224 148 93
-0.232846 0.158672 -0.165733 0.922117 0.386181 -0.023377 0.000000 0.000000 224 148 93
-0.203776 0.081043 -0.116959 0.952666 0.273721 -0.132145 0.000000 0.000000 224 148 93
-0.151634 -0.178094 -0.134738 0.963408 0.242744 0.113376 0.000000 0.000000 224 148 93
-0.147403 -0.176027 -0.164860 0.957640 0.244850 0.151341 0.000000 0.000000 224 148 93
-0.224114 -0.119819 -0.134824 -0.747246 -0.632252 0.204474 0.000000 0.000000 224 148 93
-0.223558 -0.122733 -0.164859 -0.803919 -0.593158 0.042665 0.000000 0.000000 224 148 93
-0.180555 -0.181017 -0.164860 -0.589435 -0.652974 0.475539 0.000000 0.000000 224 148 93
-0.151634 -0.178094 -0.134738 -0.519120 -0.644826 0.560961 0.000000 0.000000 224 148 93
-0.361755 -0.089533 -0.164863 -0.940214 -0.339244 -0.029084 0.000000 0.000000 224 148 93
-0.315140 -0.196337 -0.164795 -0.886135 -0.386914 -0.254921 0.000000 0.000000 224 148 93
-0.325822 -0.191706 -0.134692 -0.899350 -0.380078 -0.215979 0.000000 0.000000 224 148 93
-0.361880 -0.087572 -0.135086 -0.944823 -0.327067 0.017579 0.000000 0.000000 224 148 93
-0.453976 -0.102107 -0.164857 -0.686209 -0.723472 0.075320 0.000000 0.000000 224 148 93
-0.428740 -0.125429 -0.164860 -0.677419 -0.733055 0.060457 0.000000 0.000000 224 148 93
-0.427432 -0.124167 -0.134912 -0.684408 -0.725486 0.072237 0.000000 0.000000 224 148 93
-0.452591 -0.100056 -0.137129 -0.693228 -0.715323 0.087558 0.000000 0.000000 224 148 93
-0.427432 -0.124167 -0.134912 0.475723 -0.879177 0.026582 0.000000 0.000000 224 148 93
-0.428740 -0.125429 -0.164860 0.472243 -0.881283 0.016480 0.000000 0.000000 224 148 93
-0.361755 -0.089533 -0.164863 0.483322 -0.874050 0.049135 0.000000 0.000000 224 148 93
-0.361880 -0.087572 -0.135086 0.486679 -0.871517 0.059450 0.000000 0.000000 224 148 93
-0.315140 -0.196337 -0.164795 0.561022 -0.778069 0.282510 0.000000 0.000000 224 148 93
-0.223558 -0.122733 -0.164859 0.624104 -0.776482 0.086886 0.000000 0.000000 224 148 93
-0.224114 -0.119819 -0.134824 0.613697 -0.779412 0.125950 0.000000 0.000000 224 148 93
-0.325822 -0.191706 -0.134692 0.548296 -0.775170 0.313791 0.000000 0.000000 224 148 93
-0.282335 0.077883 0.114747 -0.593158 -0.790979 -0.149968 0.000000 0.000000 224 148 93
-0.305119 0.155321 0.114113 -0.959136 -0.282327 -0.017640 0.000000 0.000000 224 148 93
-0.289153 0.109924 -0.027268 -0.959136 -0.282327 -0.017640 0.000000 0.000000 224 148 93
-0.289153 0.109924 -0.027268 -0.573168 -0.794122 0.201972 0.000000 0.000000 224 148 93
-0.249151 0.074892 0.113010 -0.205939 -0.961577 -0.181402 0.000000 0.000000 224 148 93
-0.249500 0.079858 -0.023297 -0.605579 -0.768761 0.205481 0.000000 0.000000 224 148 93
-0.306933 0.076584 -0.109642 -0.580248 -0.702170 0.412580 0.000000 0.000000 224 148 93
-0.250086 0.032964 -0.103504 -0.581896 -0.700186 0.413617 0.000000 0.000000 224 148 93
-0.289153 0.109924 -0.027268 -0.678701 0.718162 -0.153539 0.000000 0.000000 224 148 93
-0.249090 0.144310 -0.027861 -0.620319 0.770409 -0.147130 0.000000 0.000000 224 148 93
-0.232846 0.158672 -0.165733 -0.741844 0.667989 -0.058443 0.000000 0.000000 224 148 93
-0.306933 0.076584 -0.109642 -0.766106 0.637867 -0.078372 0.000000 0.000000 224 148 93
-0.452591 -0.100056 -0.137129 -0.762993 0.646168 -0.016755 0.000000 0.000000 224 148 93
-0.453976 -0.102107 -0.164857 -0.762658 0.646687 -0.009735 0.000000 0.000000 224 148 93
-0.305119 0.155321 0.114113 -0.488235 0.833857 -0.257363 0.000000 0.000000 224 148 93
-0.239632 0.185155 0.101171 -0.441389 0.864254 -0.241218 0.000000 0.000000 224 148 93
-0.315140 -0.196337 -0.164795 -0.000122 -0.000671 -0.999969 0.000000 0.000000 224 148 93
-0.361755 -0.089533 -0.164863 0.001099 -0.003540 -0.999969 0.000000 0.000000 224 148 93
-0.223558 -0.122733 -0.164859 -0.002564 -0.002716 -0.999969 0.000000 0.000000 224 148 93
-0.232846 0.158672 -0.165733 -0.000763 -0.003143 -0.999969 0.000000 0.000000 224 148 93
-0.180555 -0.181017 -0.164860 -0.000732 -0.002655 -0.999969 0.000000 0.000000 224 148 93
-0.147403 -0.176027 -0.164860 0.000366 -0.002503 -0.999969 0.000000 0.000000 224 148 93
-0.428740 -0.125429 -0.164860 -0.000702 -0.002564 -0.999969 0.000000 0.000000 224 148 93
-0.453976 -0.102107 -0.164857 -0.001801 -0.001801 -0.999969 0.000000 0.000000 224 148 93
-0.224114 -0.119819 -0.134824 -0.020692 -0.102664 0.994476 0.000000 0.000000 224 148 93
-0.361880 -0.087572 -0.135086 -0.006195 -0.174688 0.984588 0.000000 0.000000 224 148 93
-0.325822 -0.191706 -0.134692 -0.001099 0.003388 0.999969 0.000000 0.000000 224 148 93
-0.250086 0.032964 -0.103504 0.142644 -0.128483 0.981384 0.000000 0.000000 224 148 93
-0.203776 0.081043 -0.116959 0.262398 -0.111789 0.958434 0.000000 0.000000 224 148 93
-0.151634 -0.178094 -0.134738 -0.066836 -0.081668 0.994385 0.000000 0.000000 224 148 93
-0.452591 -0.100056 -0.137129 -0.037782 -0.048891 0.998077 0.000000 0.000000 224 148 93
-0.306933 0.076584 -0.109642 -0.137791 -0.040345 0.989624 0.000000 0.000000 224 148 93
-0.427432 -0.124167 -0.134912 -0.030671 0.059725 0.997742 0.000000 0.000000 224 148 93
-0.223737 0.123443 -0.022950 0.828364 -0.545183 0.128605 0.000000 0.000000 224 148 93
-0.249500 0.079858 -0.023297 0.850612 -0.503983 0.149724 0.000000 0.000000 224 148 93
-0.250086 0.032964 -0.103504 0.745109 -0.551195 0.375378 0.000000 0.000000 224 148 93
-0.203776 0.081043 -0.116959 0.711753 -0.571184 0.408765 0.000000 0.000000 224 148 93
-0.249151 0.074892 0.113010 0.805475 -0.589526 -0.059938 0.000000 0.000000 224 148 93
-0.203348 0.133577 0.115988 0.788049 -0.611438 -0.071017 0.000000 0.000000 224 148 93
0.058120 -0.101588 1.128700 0.718131 0.637257 0.279489 0.617667 0.545940 231 227 214
0.070868 -0.052080 1.468344 0.996277 -0.020539 0.083438 0.454643 0.885072 231 227 214
0.092784 -0.153330 1.126605 0.952635 0.199683 0.229347 0.509371 0.493712 231 227 214
0.084319 -0.185465 1.172629 0.895474 -0.376141 0.237953 0.403654 0.546679 231 227 214
0.062952 -0.132867 1.382341 0.785668 -0.569628 0.241279 0.356604 0.882927 231 227 214
0.123580 -0.246461 0.974928 0.819025 -0.444838 0.362285 0.379887 0.033068 231 227 214
0.158852 -0.155025 0.997418 0.883847 -0.114475 0.453505 0.540092 0.009475 231 227 214
0.089924 -0.062980 1.039921 0.659474 0.567461 0.492965 0.696351 0.180237 231 227 214
0.006547 -0.062804 1.103475 0.418867 0.724357 0.547533 0.717866 0.542174 231 227 214
0.020841 -0.029905 1.061168 0.483932 0.603992 0.633198 0.813870 0.234631 231 227 214
0.045103 -0.187374 1.254849 0.472671 -0.829920 0.296274 0.327627 0.684566 231 227 214
0.000120 -0.150210 1.425822 0.423444 -0.855708 0.297403 0.253594 0.882303 231 227 214
-0.001715 -0.237655 1.161382 0.151524 -0.896176 0.416974 0.225273 0.508788 231 227 214
0.059457 -0.283284 1.051615 0.467238 -0.780877 0.414563 0.244987 0.071931 231 227 214
0.000501 -0.315387 1.012089 0.168981 -0.873165 0.457137 0.112981 0.012030 231 227 214
-0.049481 -0.041399 1.055032 -0.402264 0.701010 0.588855 0.778560 0.229072 231 227 214
-0.089198 -0.063166 1.039658 -0.680105 0.561785 0.470962 0.696386 0.180112 231 227 214
-0.040004 -0.080691 1.106478 -0.410535 0.704459 0.578936 0.661758 0.537487 231 227 214
0.006547 -0.062804 1.103475 -0.212897 0.778588 0.590289 0.717866 0.542174 231 227 214
0.020841 -0.029905 1.061168 -0.180853 0.805048 0.564928 0.813870 0.234631 231 227 214
-0.088576 -0.144986 1.144329 -0.947020 0.260750 0.187353 0.505730 0.527253 231 227 214
-0.149541 -0.161092 1.011946 -0.891446 -0.147313 0.428449 0.539120 0.039879 231 227 214
-0.134823 -0.239278 0.963926 -0.821223 -0.436872 0.367016 0.376610 -0.004516 231 227 214
-0.080614 -0.183739 1.185205 -0.881924 -0.410016 0.232551 0.402116 0.568990 231 227 214
-0.069956 -0.035381 1.488475 -0.993561 0.113010 0.007965 0.454643 0.885072 231 227 214
-0.040004 -0.080691 1.106478 -0.826411 0.547899 -0.129765 0.661758 0.537487 231 227 214
-0.070552 -0.092019 1.452008 -0.981597 -0.166082 0.094089 0.398517 0.883855 231 227 214
-0.052796 -0.126576 1.444895 -0.686880 -0.683645 0.246498 0.344634 0.882658 231 227 214
-0.050258 -0.203833 1.206795 -0.497147 -0.808313 0.315287 0.322046 0.598204 231 227 214
0.000120 -0.150210 1.425822 -0.305399 -0.906278 0.292123 0.253594 0.882303 231 227 214
-0.001715 -0.237655 1.161382 -0.197729 -0.879757 0.432295 0.225273 0.508788 231 227 214
-0.061239 -0.290443 1.045223 -0.466903 -0.770226 0.434400 0.241471 0.055226 231 227 214
0.000501 -0.315387 1.012089 -0.110752 -0.882168 0.457656 0.112981 0.012030 231 227 214
-0.040004 -0.080691 1.106478 -0.360973 0.896176 -0.257912 0.661758 0.537487 231 227 214
-0.028777 0.015957 1.426573 -0.360973 0.896176 -0.257912 0.603161 0.915673 231 227 214
0.006547 -0.062804 1.103475 -0.360973 0.896176 -0.257912 0.717866 0.542174 231 227 214
0.006547 -0.062804 1.103475 0.654103 0.720878 -0.228980 0.717866 0.542174 231 227 214
0.033610 0.008257 1.404471 0.654103 0.720878 -0.228980 0.603161 0.915673 231 227 214
0.058120 -0.101588 1.128700 0.654103 0.720878 -0.228980 0.617667 0.545940 231 227 214
0.064451 -0.223489 1.843283 0.823542 -0.064638 0.563524 0.000000 0.000000 59 59 57
0.073132 -0.230992 1.829737 0.823542 -0.064608 0.563524 0.000000 0.000000 59 59 57
0.082879 -0.224949 1.816185 0.823542 -0.064638 0.563524 0.000000 0.000000 59 59 57
0.087983 -0.208900 1.810567 0.823542 -0.064669 0.563524 0.000000 0.000000 59 59 57
0.061922 -0.206836 1.848891 0.823542 -0.064669 0.563524 0.000000 0.000000 59 59 57
0.085454 -0.192247 1.816174 0.823542 -0.064638 0.563524 0.000000 0.000000 59 59 57
0.067026 -0.190787 1.843273 0.823542 -0.064638 0.563524 0.000000 0.000000 59 59 57
0.076773 -0.184744 1.829721 0.823542 -0.064638 0.563524 0.000000 0.000000 59 59 57
-0.082638 -0.224949 1.816185 -0.823542 -0.064638 0.563524 0.000000 0.000000 59 59 57
-0.072891 -0.230992 1.829737 -0.823542 -0.064608 0.563524 0.000000 0.000000 59 59 57
-0.064210 -0.223489 1.843283 -0.823542 -0.064669 0.563524 0.000000 0.000000 59 59 57
-0.087742 -0.208900 1.810567 -0.823542 -0.064638 0.563524 0.000000 0.000000 59 59 57
-0.061681 -0.206836 1.848891 -0.823542 -0.064669 0.563524 0.000000 0.000000 59 59 57
-0.085213 -0.192247 1.816174 -0.823542 -0.064638 0.563494 0.000000 0.000000 59 59 57
-0.066785 -0.190787 1.843273 -0.823542 -0.064638 0.563524 0.000000 0.000000 59 59 57
-0.076532 -0.184744 1.829721 -0.823542 -0.064638 0.563524 0.000000 0.000000 59 59 57
3 0 1 2
3 3 4 5
3 3 6 4
3 7 3 5
3 8 9 10
3 8 11 9
3 11 8 12
3 13 14 15
3 16 17 18
3 19 17 16
3 17 20 18
3 17 21 20
3 22 20 21
3 23 20 22
3 23 18 20
3 24 22 21
3 23 25 18
3 23 26 25
3 23 22 26
3 25 26 27
3 28 27 26
3 29 27 28
3 30 29 28
3 25 27 31
3 27 32 31
3 33 31 32
3 34 25 31
3 33 34 31
3 33 32 35
3 36 34 33
3 36 37 34
3 37 18 34
3 34 18 25
3 38 32 27
3 29 38 27
3 39 38 29
3 40 28 26
3 41 28 40
3 41 40 42
3 41 42 43
3 43 42 44
3 44 42 45
3 45 42 40
3 44 45 46
3 46 45 24
3 46 47 44
3 47 48 44
3 43 44 48
3 49 48 47
3 49 50 48
3 24 45 22
3 45 26 22
3 26 45 40
3 51 46 24
3 52 46 51
3 51 53 52
3 54 49 52
3 53 54 52
3 55 49 54
3 50 49 55
3 55 56 50
3 56 55 57
3 57 55 58
3 59 57 58
3 59 56 57
3 56 59 60
3 58 61 59
3 56 60 35
3 35 62 56
3 60 59 63
3 61 63 59
3 61 16 63
3 63 37 60
3 37 36 60
3 64 62 35
3 64 65 62
3 32 64 35
3 66 56 62
3 56 66 50
3 66 67 50
3 64 32 38
3 39 64 38
3 37 63 18
3 63 16 18
3 48 50 67
3 43 48 67
3 61 19 16
3 60 36 33
3 60 33 35
3 68 69 70
3 68 70 71
3 72 69 68
3 71 70 73
3 70 74 73
3 74 75 73
3 70 69 76
3 77 72 68
3 77 78 72
3 79 77 68
3 79 68 71
3 78 80 72
3 81 77 79
3 82 81 79
3 82 83 81
3 81 84 77
3 78 77 84
3 85 83 82
3 82 79 86
3 86 79 71
3 83 85 87
3 88 75 74
3 74 89 88
3 88 89 90
3 78 91 80
3 78 92 91
3 93 92 78
3 94 82 86
3 82 94 85
3 95 94 86
3 86 96 95
3 96 97 95
3 98 97 96
3 99 98 96
3 96 71 99
3 96 86 71
3 99 71 73
3 75 99 73
3 99 75 100
3 98 99 100
3 98 100 101
3 102 98 101
3 95 97 103
3 94 95 103
3 94 103 104
3 94 104 105
3 103 106 104
3 106 103 107
3 108 107 103
3 108 102 107
3 97 108 103
3 98 102 108
3 97 98 108
3 109 106 107
3 107 110 109
3 109 110 111
3 112 109 111
3 106 109 112
3 106 112 113
3 104 106 113
3 114 104 113
3 104 114 105
3 113 115 114
3 115 116 114
3 117 116 115
3 115 113 118
3 116 117 119
3 116 119 85
3 85 105 114
3 116 85 114
3 117 120 119
3 120 117 92
3 121 120 92
3 122 120 121
3 120 122 119
3 121 123 122
3 122 124 119
3 87 119 124
3 87 85 119
3 83 87 124
3 124 125 83
3 125 81 83
3 117 115 126
3 115 127 126
3 127 115 118
3 128 127 118
3 129 127 128
3 130 129 128
3 131 129 130
3 132 131 130
3 133 132 130
3 128 133 130
3 133 128 134
3 135 133 134
3 136 135 134
3 137 136 134
3 137 134 128
3 138 136 137
3 139 138 137
3 138 140 136
3 140 141 136
3 135 136 141
3 142 141 140
3 143 141 142
3 142 140 144
3 90 142 144
3 143 142 145
3 141 143 146
3 146 135 141
3 147 146 143
3 148 146 147
3 91 148 147
3 148 91 149
3 149 150 148
3 146 148 150
3 92 149 91
3 92 117 149
3 117 126 149
3 144 140 151
3 90 144 151
3 90 151 152
3 151 140 153
3 152 88 90
3 80 91 147
3 154 80 147
3 155 80 154
3 154 156 155
3 156 157 155
3 158 157 156
3 159 158 156
3 156 160 159
3 161 155 157
3 72 80 155
3 69 72 155
3 161 69 155
3 156 154 147
3 88 152 162
3 88 162 75
3 162 163 75
3 163 162 164
3 164 101 163
3 164 162 165
3 101 164 166
3 101 166 167
3 101 167 102
3 100 163 101
3 100 75 163
3 162 152 165
3 168 166 164
3 169 168 164
3 169 164 165
3 168 169 170
3 169 165 171
3 172 169 171
3 169 172 170
3 172 173 170
3 173 172 174
3 172 175 174
3 175 172 171
3 176 174 175
3 176 175 139
3 139 175 171
3 174 176 177
3 178 174 177
3 178 179 174
3 111 179 178
3 112 111 178
3 177 112 178
3 139 171 153
3 113 112 177
3 180 113 177
3 177 176 180
3 118 113 180
3 180 181 118
3 180 182 181
3 176 182 180
3 182 176 139
3 182 137 181
3 137 182 139
3 181 128 118
3 181 137 128
3 138 139 153
3 153 140 138
3 171 151 153
3 171 165 151
3 165 152 151
3 183 184 185
3 183 89 184
3 186 183 185
3 186 89 183
3 184 89 74
3 74 187 184
3 74 188 187
3 186 90 89
3 186 189 90
3 190 90 189
3 191 192 193
3 81 192 191
3 191 193 194
3 194 195 191
3 195 196 191
3 84 81 191
3 197 198 199
3 199 198 200
3 201 202 203
3 202 201 135
3 203 202 204
3 205 204 202
3 206 205 202
3 150 202 135
3 150 135 146
3 133 135 207
3 132 133 207
3 208 209 210
3 208 211 209
3 212 213 214
3 213 215 214
3 215 213 216
3 126 215 216
3 214 215 217
3 215 126 217
3 218 214 217
3 126 127 217
3 94 105 85
3 143 160 156
3 147 143 156
3 219 220 221
3 222 223 224
3 224 223 225
3 222 226 223
3 226 227 223
3 228 227 226
3 228 226 229
3 226 230 229
3 231 232 233
3 233 232 234
3 235 236 237
3 237 236 238
3 239 240 241
3 241 240 242
3 243 244 245
3 245 244 246
3 247 248 249
3 249 248 250
3 251 252 253
3 253 254 251
3 255 251 254
3 256 255 254
3 257 258 259
3 258 257 260
3 257 261 260
3 259 258 262
3 263 264 265
3 265 264 266
3 266 267 265
3 268 269 270
3 270 271 268
3 271 270 272
3 268 271 273
3 274 271 272
3 275 273 271
3 276 277 278
3 279 277 276
3 280 279 276
3 277 279 281
3 282 277 281
3 277 282 283
3 284 281 279
3 285 282 281
3 286 287 288
3 289 286 288
3 286 289 290
3 291 286 290
3 290 292 291
3 292 293 291
3 294 295 296
3 297 298 294
3 299 298 297
3 300 299 297
3 301 300 302
3 303 304 305
3 306 307 308
3 307 306 309
3 308 307 310
3 310 307 311
3 311 312 310
3 312 313 310
3 314 315 316
3 314 316 317
3 318 319 320
3 318 320 321
3 322 323 324
3 322 324 325
3 326 327 328
3 326 328 329
3 330 331 332
3 330 332 333
3 334 335 336
3 334 337 338
3 337 339 338
3 339 337 340
3 341 339 340
3 342 343 344
3 342 344 345
3 345 344 346
3 344 347 346
3 342 348 343
3 348 349 343
3 350 351 352
3 351 353 352
3 354 352 353
3 353 355 354
3 353 351 356
3 357 353 356
3 358 359 360
3 358 361 359
3 358 362 361
3 363 362 358
3 361 364 359
3 364 361 365
3 359 364 366
3 367 368 369
3 370 367 369
3 368 367 371
3 367 372 371
3 373 374 375
3 376 375 374
3 377 376 374
3 375 376 378
3 379 375 378
3 379 380 375
3 380 373 375
3 380 381 373
3 381 380 382
3 376 377 383
3 383 377 384
3 385 383 384
3 386 383 385
3 386 376 383
3 376 386 378
3 385 387 386
3 388 389 390
3 388 390 391
3 388 391 392
3 389 393 390
3 394 393 389
3 393 394 395
3 396 393 395
3 393 396 397
3 393 397 398
3 396 399 397
3 399 396 400
3 396 401 400
3 396 395 401
3 402 400 401
3 403 402 401
3 401 404 403
3 404 401 395
3 404 405 403
3 406 407 408
3 409 410 411
3 412 413 414
3 414 415 412
3 415 416 412
3 415 417 416
3 417 418 416
3 417 419 418
3 420 421 422
3 422 423 420
3 422 424 423
3 424 425 423
3 424 426 425
3 426 427 425
